<?xml version="1.0" standalone="no"?>
<!DOCTYPE svg PUBLIC "-//W3C//DTD SVG 1.1//EN" "http://www.w3.org/Graphics/SVG/1.1/DTD/svg11.dtd" >
<svg xmlns="http://www.w3.org/2000/svg">
<metadata></metadata>
<defs>
<font id="fb_spoilerregular" horiz-adv-x="756" >
<font-face units-per-em="2048" ascent="1638" descent="-410" />
<missing-glyph horiz-adv-x="390" />
<glyph unicode="&#xd;" horiz-adv-x="512" />
<glyph unicode=" "  horiz-adv-x="390" />
<glyph unicode="&#x09;" horiz-adv-x="390" />
<glyph unicode="&#xa0;" horiz-adv-x="390" />
<glyph unicode="!" horiz-adv-x="542" d="M316 743q0 -285 -55 -428h-41q-53 145 -53 428v308q0 71 63 71h25q61 0 61 -71v-308zM337 84q0 -27 -4 -45t-14.5 -28.5t-27.5 -14.5t-44 -4q-63 0 -76 19q-14 20 -14 73q0 55 19.5 75.5t70.5 20.5q55 0 72 -20q18 -20 18 -76z" />
<glyph unicode="&#x22;" horiz-adv-x="563" d="M474 922q-38 -119 -127 -215q-22 -25 -41 -25q-22 0 -22 14q0 7 4 19l98 346q14 47 59 47h33q39 0 39 -33q0 -4 -0.5 -9t-1.5 -11zM222 922q-38 -119 -127 -215q-22 -25 -41 -25q-20 0 -22 14q0 7 4 19l98 346q15 47 60 47h32q41 0 41 -33q0 -9 -4 -20z" />
<glyph unicode="#" horiz-adv-x="915" d="M352 391h221v265h-221v-265zM863 319q0 -36 -45 -36h-137v-238q0 -45 -37 -45h-36q-35 0 -35 45v238h-221v-238q0 -45 -37 -45h-34q-37 0 -37 45v238h-148q-45 0 -45 36v35q0 37 45 37h148v265h-148q-45 0 -45 37v34q0 37 45 37h148v229q0 45 37 45h34q37 0 37 -45v-229 h221v229q0 45 35 45h36q37 0 37 -45v-229h137q45 0 45 -37v-34q0 -37 -45 -37h-137v-265h137q45 0 45 -37v-35z" />
<glyph unicode="$" horiz-adv-x="851" d="M768 279q0 -276 -307 -289v-73q0 -46 -37 -46h-14q-37 0 -37 46v73q-200 7 -260 35q-21 7 -21 34v37q0 43 41 37q70 -8 129 -12t109 -4h2v372l-72 29q-199 82 -199 258q0 250 271 275v59q0 45 37 45h14q37 0 37 -45v-57q60 -1 109 -10.5t89 -26.5q21 -8 21 -35v-31 q0 -43 -41 -37q-123 15 -178 15v-346l104 -37q203 -74 203 -266zM373 926q-148 0 -148 -127v-37q0 -55 49 -92q26 -20 99 -52v308zM635 317q0 80 -121 119l-53 19v-338q174 0 174 121v79z" />
<glyph unicode="%" horiz-adv-x="1275" d="M1162 238q0 -258 -243 -258q-135 0 -190 58q-56 59 -56 200v12q0 137 60.5 196.5t185.5 59.5q63 0 109 -14t76 -44.5t44 -79.5t14 -118v-12zM1041 250q0 92 -27 121q-26 30 -95 30q-76 0 -101 -30q-24 -29 -24 -121v-14q0 -94 25 -123q26 -28 100 -28q73 0 97 28 q25 29 25 123v14zM405 47q-32 -47 -60 -47h-47q-39 0 -39 31q0 12 8 26l615 944q24 37 55 37h49q35 0 35 -28q0 -13 -8 -27zM601 788q0 -256 -244 -256q-134 0 -189 58q-56 59 -56 198v13q0 69 15 118t45 80t76 45.5t109 14.5t109 -14.5t76 -45.5t44.5 -80t14.5 -118v-13z M480 803q0 90 -27 120q-25 31 -96 31q-75 0 -100 -30q-24 -28 -24 -121v-15q0 -91 25 -122q26 -29 99 -29q74 0 98 29q25 29 25 122v15z" />
<glyph unicode="&#x26;" horiz-adv-x="1355" d="M1214 238q0 -156 -86 -205q-76 -43 -305 -43q-197 0 -327 14q-41 4 -41 55v590q0 51 47 51h49q47 0 47 -51v-524q106 -8 213 -8q159 0 200 12q60 18 60 90v705q0 53 47 53h49q47 0 47 -53v-686zM905 319q0 -51 -47 -51h-49q-47 0 -47 51v453q0 64 -107 80q-29 4 -152 4 q-161 0 -219 -10v-793q0 -53 -47 -53h-49q-47 0 -47 53v858q0 45 39 54q88 18 311 18q256 0 322 -33q92 -45 92 -176v-455z" />
<glyph unicode="'" horiz-adv-x="313" d="M222 922q-38 -119 -127 -215q-22 -25 -41 -25q-20 0 -22 14q0 7 4 19l98 346q15 47 60 47h32q41 0 41 -33q0 -9 -4 -20z" />
<glyph unicode="(" horiz-adv-x="491" d="M455 -337q-33 -27 -66 8q-130 141 -215 376q-86 240 -86 455q0 213 92 459q45 117 97 209t114 161q25 27 60 4q16 -10 16 -22q0 -18 -18 -43q-79 -124 -140 -305q-76 -222 -76 -416v-94q0 -187 74 -414q31 -94 66.5 -172t75.5 -141q29 -45 6 -65z" />
<glyph unicode=")" horiz-adv-x="491" d="M406 502q0 -217 -87 -455q-85 -235 -215 -376q-32 -35 -65 -8q-23 20 6 65q79 123 141 313q75 227 75 414v94q0 194 -77 416q-62 184 -139 305q-18 25 -18 43q0 12 16 22q35 23 59 -4q62 -69 114 -161t97 -209q93 -245 93 -459z" />
<glyph unicode="*" horiz-adv-x="800" d="M466 893l125 -166q22 -31 16 -57q-5 -27 -28 -27q-27 0 -54 37l-129 172l-127 -174q-24 -31 -53 -31q-22 0 -31 21q-8 22 15 51l133 176l-211 -6q-45 -2 -45 41q0 41 47 41l207 -2l-117 159q-14 20 -14 39q0 41 32 41q26 0 48 -34l118 -168l121 174q20 26 45 26 q33 0 33 -35q0 -21 -16 -43l-113 -159l203 2q52 1 51 -37q0 -45 -51 -45z" />
<glyph unicode="+" horiz-adv-x="698" d="M656 469q0 -37 -47 -37h-202v-211q0 -45 -37 -45h-43q-37 0 -37 45v211h-205q-45 0 -45 37v43q0 37 45 37h205v196q0 48 37 48h43q37 0 37 -48v-196h202q47 0 47 -37v-43z" />
<glyph unicode="," horiz-adv-x="333" d="M207 55q-38 -118 -127 -214q-22 -25 -41 -25q-22 0 -23 15q0 7 4 18l99 346q14 47 59 47h33q41 0 41 -33q0 -9 -4 -21z" />
<glyph unicode="-" horiz-adv-x="698" d="M615 465q0 -37 -47 -37h-442q-45 0 -45 37v55q0 37 45 37h442q47 0 47 -37v-55z" />
<glyph unicode="." horiz-adv-x="335" d="M243 84q0 -27 -4 -45t-13.5 -28.5t-26.5 -14.5t-42 -4q-71 0 -82 41q-4 15 -4 51q0 27 3.5 45.5t12.5 30t26 16t44 4.5q63 0 78 -30q8 -22 8 -66z" />
<glyph unicode="/" horiz-adv-x="698" d="M154 -94q-21 -47 -60 -47h-47q-35 0 -35 31q0 12 6 27l510 1203q16 37 56 37h49q33 0 33 -27q0 -13 -7 -28z" />
<glyph unicode="0" horiz-adv-x="890" d="M801 532q0 -296 -56 -403q-74 -143 -299 -143q-233 0 -305 143q-51 102 -51 387q0 291 68 404q79 133 282 133q226 0 301 -133q60 -105 60 -388zM649 653q0 156 -38 212q-38 57 -148 57h-47q-101 0 -137 -58q-35 -58 -35 -202v-310q0 -138 36 -187q38 -50 152 -50h31 q106 0 149 61q37 52 37 178v299z" />
<glyph unicode="1" horiz-adv-x="890" d="M608 53q0 -53 -33 -53h-79q-37 0 -37 53v811q-96 -20 -203 -14q-39 1 -39 29v43q0 36 33 39l49 4q56 5 100 16.5t78 30.5q43 24 62 24h20q49 0 49 -47v-936z" />
<glyph unicode="2" horiz-adv-x="890" d="M806 35q0 -35 -47 -35h-637q-39 0 -39 49v31q0 32 35 70l395 417q90 97 90 189v14q0 88 -44 120t-165 32h-4q-55 0 -102 -3t-86 -8q-41 -6 -41 37v45q0 29 18 35q71 25 244 25h6q315 0 315 -277q0 -164 -133 -297l-346 -344h494q47 0 47 -37v-63z" />
<glyph unicode="3" horiz-adv-x="890" d="M782 293q0 -162 -88 -234.5t-272 -72.5h-8q-231 0 -297 28q-21 9 -21 31v57q0 41 47 33q97 -18 238 -18h4q147 0 198 33q52 34 52 145v22q0 150 -160 150h-201q-41 0 -41 49v35q0 45 41 45h213q107 0 107 158v20q0 107 -39 131q-28 17 -168 17h-4q-54 0 -100 -3t-84 -8 q-41 -6 -41 37v45q0 29 18 35q66 25 260 25h6q170 0 232 -56q63 -56 63 -194q0 -89 -30 -138q-29 -50 -105 -90q-23 -12 0 -20l33 -12q79 -32 108 -72q39 -53 39 -178z" />
<glyph unicode="4" horiz-adv-x="890" d="M854 289q0 -27 -10 -33t-31 -6h-117v-207q0 -43 -37 -43h-65q-12 0 -19 1t-10 5.5t-3.5 13t-0.5 23.5v207h-461q-13 0 -21 2.5t-12 9t-5 18t-1 29.5q0 36 11 53l381 625q30 49 55 49h147q41 0 41 -39v-624h117q41 0 41 -39v-45zM561 373v547h-16l-330 -547h346z" />
<glyph unicode="5" horiz-adv-x="890" d="M781 313q0 -327 -383 -327h-8q-183 0 -262 32q-20 9 -20 27v66q0 36 41 28q116 -22 229 -22h4q149 0 199 42q51 42 51 156v19q0 93 -45 134q-44 40 -174 40h-232q-20 0 -24 6t-4 29v446q0 47 41 47h456q47 0 47 -39v-47q0 -47 -36 -47h-373v-274l151 4q189 4 265 -78 q77 -83 77 -242z" />
<glyph unicode="6" horiz-adv-x="890" d="M790 313q0 -331 -322 -331h-41q-315 0 -315 335v383q0 353 293 353h8q224 0 280 -25q17 -6 17 -35v-53q0 -34 -39 -29q-57 5 -103 8t-82 3h-24q-127 0 -167 -46q-40 -44 -40 -163v-138q0 -26 20 -6q55 55 91 68q28 12 77 12h64q159 0 220 -73q63 -72 63 -263zM640 334 q0 107 -34 147q-35 41 -124 41h-53q-78 0 -113 -8q-61 -18 -61 -78v-121q0 -112 42 -157t146 -45h9q107 0 148 44q40 43 40 158v19z" />
<glyph unicode="7" horiz-adv-x="890" d="M438 49q-18 -49 -51 -49h-82q-31 0 -31 18q0 11 9 29l342 856h-475q-48 0 -48 29v65q0 39 48 39h618q31 0 31 -37q0 -16 -6 -34z" />
<glyph unicode="8" horiz-adv-x="890" d="M810 293q0 -164 -82 -239.5t-256 -75.5h-55q-174 0 -256 75.5t-82 239.5q0 125 37 186q30 49 106 82l33 14q11 5 -4 13q-68 40 -92 94q-19 44 -19 129q0 242 275 242h59q275 0 275 -242q0 -85 -17 -127q-23 -54 -92 -92q-17 -10 -6 -17l37 -14q75 -28 104 -80 q35 -62 35 -188zM611 780q0 88 -32 118t-115 30h-39q-85 0 -117 -29q-30 -29 -30 -119v-26q0 -150 112 -150h109q112 0 112 150v26zM665 319q0 168 -158 168h-125q-158 0 -158 -168v-38q0 -109 49 -146q43 -33 164 -33h15q119 0 166 35t47 144v38z" />
<glyph unicode="9" horiz-adv-x="890" d="M778 334q0 -180 -81 -263t-232 -83h-8h-38h-32q-106 0 -156 10q-11 2 -20.5 3.5t-16 6t-10.5 13.5t-4 24v41q0 43 39 39q67 -6 166 -6h23q133 0 180 45t47 158v153q0 17 -12 17q-8 0 -15 -9q-69 -77 -162 -77h-63q-76 0 -130 17.5t-88 54t-49.5 92t-15.5 132.5 q0 351 303 351h60q165 0 239 -67q76 -66 76 -228v-424zM635 739q0 150 -88 174q-35 9 -101 9h-8q-119 0 -154 -47q-34 -46 -34 -156v-17q0 -99 38 -134q37 -33 120 -33h53q106 0 143 22q31 18 31 61v121z" />
<glyph unicode=":" horiz-adv-x="389" d="M253 678q0 -27 -4 -45t-13.5 -28.5t-26.5 -14.5t-42 -4q-71 0 -82 41q-4 15 -4 51q0 27 3.5 45.5t13 30t26 16t43.5 4.5q63 0 78 -31q8 -21 8 -65zM253 104q0 -27 -4 -45t-13.5 -28.5t-26.5 -14.5t-42 -4q-71 0 -82 41q-4 15 -4 51q0 28 3.5 46.5t13 30t26 16t43.5 4.5 q63 0 78 -31q8 -21 8 -66z" />
<glyph unicode=";" horiz-adv-x="387" d="M252 678q0 -27 -4 -45t-13.5 -28.5t-26.5 -14.5t-42 -4q-71 0 -82 41q-4 15 -4 51q0 27 3.5 45.5t13 30t26 16t43.5 4.5q63 0 78 -31q8 -21 8 -65zM207 117q-38 -119 -127 -215q-23 -24 -41 -24q-21 0 -23 14q0 7 4 18l99 346q14 47 59 47h33q41 0 41 -33q0 -9 -4 -20z " />
<glyph unicode="&#x3c;" horiz-adv-x="698" d="M596 180q0 -26 -25 -26q-17 0 -43 14l-422 246q-45 28 -45 65v31q0 39 45 65l422 248q25 15 43 15q25 0 25 -27v-57q0 -34 -47 -60l-369 -198l369 -201q47 -26 47 -59v-56z" />
<glyph unicode="=" horiz-adv-x="698" d="M637 612q0 -34 -47 -34h-484q-45 0 -45 34v58q0 35 45 35h484q47 0 47 -35v-58zM637 311q0 -37 -47 -37h-484q-45 0 -45 37v56q0 36 45 36h484q47 0 47 -36v-56z" />
<glyph unicode="&#x3e;" horiz-adv-x="698" d="M627 479q0 -37 -45 -65l-422 -246q-26 -14 -43 -14q-25 0 -25 26v56q0 33 47 59l369 201l-369 198q-47 26 -47 60v57q0 27 25 27q17 0 43 -15l422 -248q45 -26 45 -65v-31z" />
<glyph unicode="?" horiz-adv-x="714" d="M612 862q0 -94 -39 -166q-29 -54 -106 -131l-64 -63q-71 -72 -84 -142l-6 -38q-3 -14 -5 -21.5t-5 -11.5t-9 -5t-18 -1h-20q-17 0 -25.5 6t-12.5 18t-4.5 30t-0.5 42v6q0 109 84 195l86 90q86 86 86 151v21q0 104 -40 131q-40 28 -169 28h-4q-74 0 -162 -12 q-37 -4 -37 37v37q0 28 19 35q64 26 229 26h8q168 0 240 -69q59 -62 59 -193zM358 84q0 -27 -4 -45t-14 -28.5t-27.5 -14.5t-44.5 -4q-61 0 -76 19q-14 20 -14 73q0 55 19.5 75.5t70.5 20.5q56 0 73 -20t17 -76z" />
<glyph unicode="@" horiz-adv-x="1886" d="M1844 156q-94 -288 -330 -452q-231 -162 -537 -162q-241 0 -440 111q-205 114 -318.5 320.5t-113.5 454.5q0 264 122 489q125 232 349 360.5t475 128.5q202 0 362 -79q176 -87 264 -254t88 -352q0 -169 -66 -330q-70 -173 -193 -272q-129 -104 -293 -104q-153 0 -181 121 q16 64 56 104q-246 -226 -404 -226q-85 0 -136 77q-45 67 -45 156q0 156 104 345q86 156 217 296q107 73 177 73q30 0 53 -13q140 0 202 -84l8 96l136 -24l-101 -393q-72 -280 -72 -338q0 -19 5 -29q-6 -20 -6 -33q0 -28 25 -28q17 0 45 13q20 -9 40 -9q74 0 152 121 q92 40 144 157q73 164 73 342q-33 141 -105 309q-91 134 -245 212q-150 76 -315 76q-232 -64 -392 -160q-223 -76 -264 -272q-157 -216 -157 -411q0 -35 5 -69q-8 -240 104 -408q61 -217 272 -256q140 -84 360 -112q55 -7 101 -7q231 0 395 151q211 105 256 400zM1182 773 q0 60 -32 100q-17 22 -44 22q-28 0 -66 -23q-80 8 -136 -136q-111 -13 -192 -211q-59 -145 -59 -232q19 -29 30 -95q29 24 49 24q23 0 36 -30q112 56 248 192q40 88 120 144q46 146 46 245z" />
<glyph unicode="A" horiz-adv-x="1479" d="M1456 0h-535l39 32q72 32 99 88q0 44 -40 139l-82 195h-525l-92 -214q-34 -79 -34 -118q0 -74 114 -82l43 -40h-427v37q85 15 96 67q64 19 127 167l477 1116l44 -27l463 -1101q48 -114 105 -139q31 -77 128 -83v-37zM872 544l-176 528l-253 -544z" />
<glyph unicode="B" horiz-adv-x="1366" d="M1254 371q0 -114 -65 -201t-174 -127q-125 -46 -341 -43l-578 8l-16 56l5 -27q86 0 122 54q9 53 23 149v876q0 126 -29 159q-39 44 -116 44l43 -7l-48 40l540 4q338 3 480 -139q91 -91 91 -223q0 -223 -245 -302q141 -30 211 -96q97 -92 97 -225zM982 1002 q0 145 -123 222q-104 65 -257 65q-100 0 -180 -22v-521q66 -2 178 30q68 -11 124 -11q162 0 219 95q39 65 39 142zM1022 354q0 188 -183 267q-97 42 -240 42q-128 0 -177 -9l-22 -494q138 -89 251 -89q151 0 252 64q119 76 119 219z" />
<glyph unicode="C" horiz-adv-x="1366" d="M1336 320q-238 -351 -602 -351q-337 0 -522 250q-138 186 -138 438q0 199 86 365q90 175 256 272q159 93 348 93q148 0 290 -72q43 -22 60 -22q23 5 23 31q0 27 -25 76l121 -13l31 -461l-64 2q-84 387 -420 387q-295 0 -415 -287q-63 -151 -63 -373q0 -382 237 -526 q88 -27 214 -27q30 0 63 2q55 -18 106 -18q82 0 151 48q79 114 191 204z" />
<glyph unicode="D" horiz-adv-x="1479" d="M1401 685q0 -284 -172 -473q-198 -218 -588 -212l-537 8l-16 -8l-2 37q86 0 122 55q22 33 22 148v876q0 127 -102 140q11 20 11 31q0 15 -19 15q-12 0 -32 -6v0l-24 80l523 -20q296 -11 407 -49q198 -67 306 -242q101 -163 101 -380zM1173 675q0 267 -149 413 q-164 160 -392 160q-29 3 -63 3q-68 0 -153 -11l6 -1142q43 2 218 -2q260 -6 401 160q132 154 132 419z" />
<glyph unicode="E" horiz-adv-x="1251" d="M1192 304l-96 -320h-1000l-16 80l2 -43q47 0 86 83q18 -16 31 -16q34 0 33 176l-4 840q-28 119 -28 149q0 8 2 10q-35 40 -120 40l-10 9v40l1007 -12l15 -297l-70 5q-16 88 -32 128q-32 39 -208 88h-376l24 -488l286 -46q192 0 192 104q0 15 -6 30l72 32l32 -360l-88 -32 q-3 51 -17 78q-39 76 -156 76q-17 0 -29 -1l-294 -25l-4 -422q-1 -74 1 -77q37 -25 59 -37q11 -6 26 -6q24 0 62 14h184q56 8 94 8t58 -8q72 24 125 33q43 63 67 183z" />
<glyph unicode="F" horiz-adv-x="1139" d="M1055 1058l-79 -2q-24 144 -120 192q-32 -16 -152 -16h-288l16 -416l234 -67q70 35 133 47q32 39 44 139h37v-459h-37q-2 133 -74 172q-33 18 -103 18l-226 -42l-21 -384q19 -52 19 -93q0 -23 -6 -43q4 -11 18 -11q19 0 54 19q64 -40 62 -75h49v-37l-583 8l40 56l9 -27 q55 51 103 51q0 64 43 152v876q0 103 -13 136q-27 67 -133 67l-9 -23l-8 64l960 -8z" />
<glyph unicode="G" horiz-adv-x="1479" d="M1392 680l25 14q-52 -66 -77 -66q-14 0 -20 20q-17 -24 -17 -74q0 -36 9 -86l-104 -384q-112 -192 -416 -216q-436 32 -608 312q-110 179 -120 449q-8 211 86 343q164 400 504 400q61 0 128 -13q131 0 306 -65q57 -21 75 -21q29 0 29 25q0 14 -8 34l80 8l20 -409l-84 9 q-4 151 -88 232q-96 68 -220 68q-52 0 -108 -12q-68 26 -127 26q-161 0 -249 -194q-114 -148 -114 -388q0 -176 64 -330q114 -122 210 -186l224 -56q144 -8 224 64l79 312q0 76 -6 103q-41 17 -97 41q1 8 1 15q0 41 -33 49l32 80l448 -8z" />
<glyph unicode="H" horiz-adv-x="1479" d="M1429 0h-557l-23 37l47 3q84 -3 122 46q25 32 25 154v413h-630v-413q0 -103 35 -136q6 -36 61 -36q19 0 43 4l56 -35v-45l-581 8v37l21 43q27 -8 46 -8q39 0 50 32q56 48 72 160l5 851q1 111 -13 137q-48 4 -48 20q-80 0 -85 47l-43 -55v104l576 -12v-37h-49 q-53 0 -86 -28q-22 -19 -56 -75q-4 -23 -4 -101l43 -339h576l11 339q3 96 -13 137q-62 12 -133 67h-48v37h580v-37h-48q-82 0 -141 -119q-5 -5 24 -96l-29 -864q-3 -99 13 -120q50 -28 50 -46q0 -7 -9 -13q43 -24 92 -24h48v-37z" />
<glyph unicode="I" horiz-adv-x="682" d="M624 0l-584 4l3 33h48q84 0 93 67q40 44 53 136v876q0 103 -13 136q-10 26 -68 28q-27 21 -68 32l-44 12v48l584 8l-4 -61h-49q-59 -35 -87 -87q-48 -24 -59 -116l19 -868q23 -58 23 -104q0 -17 -3 -32q24 -48 107 -75l41 43z" />
<glyph unicode="J" horiz-adv-x="797" d="M785 1319h-49q-80 -15 -121 -49q-24 -31 -24 -154v-663q0 -285 -143 -425q-88 -59 -204 -59q-77 0 -135 37q-49 54 -49 122q-3 19 -3 33q0 50 40 50q10 0 23 -3q70 19 103 -27q15 -21 45 -69q15 -17 24 -17q8 0 12 13q52 0 56 88l39 920q4 93 -13 136q-50 36 -134 44 l-48 23l-12 77h600z" />
<glyph unicode="K" horiz-adv-x="1479" d="M1508 -8h-645v37q109 0 109 63q0 43 -72 114l-468 463v-437q0 -103 13 -136q25 -42 83 -42q13 0 28 2l56 -8l4 -56h-568l8 36l24 24q92 8 136 26q24 31 24 154v876q-12 100 -13 137q-25 10 -67 39q-23 16 -66 27h-48l2 53l572 -4l-4 -56l-44 -20q-9 2 -18 2 q-41 0 -106 -90q-16 -10 -16 -88v-415q39 37 124 155q312 246 360 336q8 44 16 72q-23 12 -64 48l-32 28l4 48l488 4l2 -73q-74 -11 -174 -59q-40 -40 -116 -124q-97 -80 -172 -168l-184 -216l440 -497q181 -204 384 -218v-37z" />
<glyph unicode="L" horiz-adv-x="1251" d="M1232 280l-145 -288h-1050v37h51q86 0 123 56q21 32 21 148v875q0 127 -32 176q-50 2 -100 8l-68 8l-4 60h628l-8 -96q-68 19 -114 19q-72 0 -94 -45q-9 -18 -16 -153l-44 -853q16 -68 60 -113q28 -23 84 -31l192 16q132 -4 198 -13q181 43 222 233z" />
<glyph unicode="M" horiz-adv-x="1821" d="M1760 -12l-548 12v44l48 16q26 -9 48 -9q59 0 77 66q9 33 9 114v906l-502 -1105l-56 -16l-472 1052l-50 -837q18 -115 27 -156q37 -42 117 -42h48v-37h-454l8 52l52 -4q9 -2 18 -2q41 0 58 46q20 28 38 143l-26 885q8 96 6 131q-38 53 -166 57l-4 60l388 8l440 -1052 l532 1060l368 -20l-8 -44l-25 -1q-87 -23 -123 -52q-22 -32 -22 -146v-886q0 -125 28 -156q38 -43 98 -43h56z" />
<glyph unicode="N" horiz-adv-x="1479" d="M1440 1292h-44q-78 0 -128 -29q-22 -32 -22 -146v-1143h-36l-894 1092v-835q0 -126 27 -156q37 -42 93 -39l20 4l-12 -32l-408 -12l40 48l7 -11q87 0 123 52q22 32 22 146v943q-51 60 -79 82q-38 30 -100 50q-28 9 -45 18l8 36l320 12l826 -1037v782q-18 111 -28 156 q-42 -1 -114 23h-56l6 56h472z" />
<glyph unicode="O" horiz-adv-x="1479" d="M1400 686q0 -312 -176 -510q-183 -207 -491 -207q-310 0 -490 205q-171 195 -171 509q0 323 220 527q191 177 457 177q299 0 479 -204q172 -194 172 -497zM1171 650q0 178 -18 264q-12 57 -55 151q-100 218 -325 218q-26 0 -53 -3q-28 4 -54 4q-136 0 -228 -113 q-137 -168 -137 -492q0 -231 11 -232q5 0 12 45q207 -420 353 -420q14 0 27 4q22 -4 44 -4q237 0 424 440q-1 -118 -1 138z" />
<glyph unicode="P" horiz-adv-x="1139" d="M1067 981q0 -183 -121 -282q-111 -92 -298 -92q-98 0 -228 28v-395q0 -127 28 -159q39 -44 115 -44h52v-37h-581v37h51q86 0 123 56q20 31 20 147v876q0 128 -27 159q-39 44 -116 44h-51v37h497q160 0 254 -27q126 -36 202 -126q80 -94 80 -222zM839 961q0 199 -138 277 q-65 37 -150 37q-51 0 -131 -19v-564q106 -20 164 -20q115 0 187 89q68 83 68 200z" />
<glyph unicode="Q" horiz-adv-x="1479" d="M1401 677q0 -244 -133 -431q-135 -192 -366 -261q191 -330 490 -354v-32q-303 11 -592 195q-141 90 -243 191q-147 59 -228 123q-257 202 -257 573q0 314 179 507q184 199 495 199q301 0 483 -207q172 -197 172 -503zM1172 652q0 454 -225 598q-94 60 -213 60 q-235 0 -346 -208q-87 -163 -87 -421q0 -329 142 -507q125 -50 291 -137q233 0 347 201q91 160 91 414z" />
<glyph unicode="R" horiz-adv-x="1366" d="M1384 0h-362l-459 634q-51 -2 -83 -2q-27 0 -59 2v-394q0 -127 28 -159q39 -44 114 -44h53v-37l-556 -4l32 40l-6 1q86 0 123 56q21 32 21 147v876q0 129 -28 159q-21 22 -38 33l4 -4l-32 60l393 -8q200 -4 266 -18q133 -28 212 -111q86 -89 86 -220q0 -273 -334 -347 l280 -389q85 -118 144 -162q79 -59 201 -72v-37zM852 982q0 134 -77.5 210t-212.5 76q-58 0 -157 -19l39 -529l-11 -35q19 -1 28 -1q163 0 267 66q124 78 124 232z" />
<glyph unicode="S" horiz-adv-x="1139" d="M1025 354q0 -178 -127 -281q-118 -96 -300 -96q-74 0 -111 9l-139 34q-49 12 -113 34q-50 0 -55 -50l-44 8l4 396l28 12q29 -109 65 -176q48 -90 146 -141q91 -48 198 -48q110 0 185 55q85 61 85 167q0 110 -113 196q-70 53 -231 141q-156 85 -229 142q-150 118 -150 282 q0 162 120 262q112 95 277 95q109 0 229 -53q57 -25 78 -6q15 -5 27 -5q28 0 33 33l60 -4l-4 -400l-52 32q-28 187 -204 244q-44 48 -98 48q-35 0 -74 -20q-35 21 -67 21q-47 0 -89 -45q-77 -42 -77 -133q0 -61 43 -113q62 -74 295 -200q167 -90 206 -117q198 -136 198 -323 z" />
<glyph unicode="T" horiz-adv-x="1251" d="M1200 1144h-68q4 -5 5 -6l1 1q-1 6 -6 19q-72 66 -218 113l-190 -27l-1 -1009q-11 -43 -11 -75q0 -59 38 -81q38 -27 117 -42l13 -1l8 -32l-532 -8l4 44l27 -3q86 0 122 52q31 18 31 74q0 31 -9 72l-15 1013l-144 4h-144q-102 -34 -102 -80q0 -6 2 -12l-68 8l18 188h1107 z" />
<glyph unicode="U" horiz-adv-x="1479" d="M1457 1319h-51q-79 0 -110 -59q-12 -30 -12 -144v-560q-22 -188 -52 -284q-95 -304 -492 -304q-396 0 -500 284q-32 245 -32 334v530q0 105 -22 145q-32 58 -124 58l-50 9l16 80h576l-7 -89h-52q-85 -11 -120 -53q-61 -26 -73 -138l-4 -600q24 -240 119 -343 q73 -106 235 -106q17 0 34 1q132 -8 228 52q116 44 144 156q40 72 64 288v540q0 127 -52 156q-12 27 -62 27q-17 0 -38 -3h-48l16 100l468 -16z" />
<glyph unicode="V" horiz-adv-x="1479" d="M1454 1319q-73 -13 -109 -46q-52 -47 -94 -150l-473 -1154h-37l-508 1169q-40 91 -55 110q-50 62 -160 71v37h554v-37q-150 -14 -150 -91q0 -50 46 -156l345 -795l320 785q47 115 47 161q0 71 -127 93l-17 3v37h418v-37z" />
<glyph unicode="W" horiz-adv-x="1933" d="M1888 1312q-60 -32 -84 -92q-19 -20 -64 -160l-356 -1096l-85 1l-267 871l-349 -871h-36l-403 1126q-42 118 -57 149q-32 68 -75 68l8 52l388 -8l33 -37l-37 -27q-34 7 -43 7q-53 -1 -53 -62q0 -22 44 -161l236 -748l184 636v203q-41 118 -129 146q-3 3 13 19l4 48h400 v-56l-4 -44q-28 8 -51 8q-59 0 -85 -52q4 -52 92 -184l224 -748l260 768q13 39 44 160q0 49 -20 56q-35 12 -56 4l-8 80h344z" />
<glyph unicode="X" horiz-adv-x="1479" d="M1455 0h-582v37q45 1 66 6q68 16 68 71q0 23 -9 46q-5 12 -55 88l-230 348l-284 -364q-63 -81 -63 -118q0 -72 130 -77v-37h-481v37q50 5 88 21q126 53 246 205l320 404l-267 391q-89 130 -148 180q-91 77 -212 81v37h627v-37q-139 -5 -139 -77q0 -36 48 -108l208 -311 l241 305q61 77 61 115q0 49 -50 67q-22 8 -95 9v37h481v-37q-58 -3 -93 -18q-97 -41 -226 -206l-269 -344l291 -434q98 -147 133 -183q87 -91 195 -97v-37z" />
<glyph unicode="Y" horiz-adv-x="1479" d="M1372 1320q-47 -1 -132 -90q-48 -50 -101 -140l-303 -514l-24 -341q24 -119 28 -156q38 -42 120 -42h44v-37h-576v37h48q86 0 122 52q-10 27 -26 139l32 316l-356 580q-50 81 -77 111q-32 35 -110 74q-4 2 -13 7v40h424l8 -24l4 -4q21 -9 -14 -29q-43 -24 -43 -68 q0 -20 61 -130l224 -405l256 392q100 92 104 128q-4 56 -44 76q-14 27 -20 28l-4 36h360z" />
<glyph unicode="Z" horiz-adv-x="1251" d="M1180 324v-320l-1170 -12v37l850 1227h-412q-184 0 -208 -72q-4 -68 -28 -104l-68 8v280h956l-832 -1236h572q45 -11 78 -11q64 0 90 39q60 44 76 164h96z" />
<glyph unicode="[" horiz-adv-x="653" d="M623 -292q0 -50 -52 -50h-364q-64 0 -64 68v1552q0 68 64 68h364q52 0 52 -50v-8q0 -51 -52 -51h-290v-1470h290q52 0 52 -51v-8z" />
<glyph unicode="\" horiz-adv-x="565" d="M556 -4h-176l-380 1198l184 2z" />
<glyph unicode="]" horiz-adv-x="653" d="M509 -274q0 -68 -64 -68h-366q-49 0 -49 50v8q0 51 49 51h292v1470h-292q-49 0 -49 51v8q0 50 49 50h366q64 0 64 -68v-1552z" />
<glyph unicode="^" horiz-adv-x="788" d="M768 436h-160l-208 508l-232 -508h-141l317 701h107z" />
<glyph unicode="_" horiz-adv-x="1032" d="M1042 -258h-1042l-8 130h1044z" />
<glyph unicode="a" horiz-adv-x="909" d="M905 132q-112 -150 -214 -150q-106 0 -108 150q-142 -110 -177 -126q-54 -25 -115 -25q-100 0 -160 69q-58 66 -58 167q0 142 173 244q102 60 337 146v36q0 239 -170 239q-53 0 -94 -29q-46 -32 -44 -83l2 -58q3 -96 -85 -96q-84 0 -84 97q0 113 117 177q96 53 218 53 q229 0 287 -138q18 -43 18 -176v-311q0 -181 22 -200q11 -10 26 -10q16 0 28 7q20 12 81 73v-56zM583 197v349q-146 -58 -195 -85q-147 -82 -147 -197q0 -65 38 -114q41 -53 104 -53q76 0 200 100z" />
<glyph unicode="b" horiz-adv-x="1024" d="M954 493q0 -244 -162 -393q-139 -128 -310 -128q-159 0 -331 116v949q0 216 -31 241q-16 13 -40 13q-28 0 -70 -16l-14 35l275 112h45v-664q133 185 287 185q168 0 266 -147q85 -127 85 -303zM781 436q0 137 -58 240q-71 125 -199 125q-53 0 -106 -27q-40 -20 -102 -80 v-548q103 -101 217 -101q125 0 194 141q54 111 54 250z" />
<glyph unicode="c" horiz-adv-x="909" d="M842 348q-32 -158 -126 -260q-106 -116 -258 -116q-183 0 -292 156q-96 138 -96 329q0 210 112 343q119 143 325 143q106 0 200 -56q109 -65 109 -164q0 -85 -93 -85q-60 0 -89 38q-7 9 -23 82q-26 118 -137 118q-100 0 -161 -74q-81 -98 -81 -259q0 -155 70 -274 q83 -141 228 -141q97 0 176 67q55 47 107 167z" />
<glyph unicode="d" horiz-adv-x="1024" d="M1029 85l-272 -113h-46v131q-125 -131 -269 -131q-170 0 -277 143q-97 130 -97 305q0 201 119 356q129 168 324 168q121 0 200 -77v169q0 217 -31 242q-16 13 -40 13q-26 0 -69 -16l-13 35l273 112h45v-1059q0 -219 32 -246q16 -14 38 -14q27 0 72 17zM711 173v472 q0 143 -115 209q-49 28 -97 28q-88 0 -157 -79q-91 -104 -91 -304q0 -153 64 -272q78 -145 220 -145q91 0 176 91z" />
<glyph unicode="e" horiz-adv-x="909" d="M851 334q-23 -151 -122 -252q-106 -110 -253 -110q-189 0 -300 147q-100 133 -100 327q0 216 101 349q112 149 322 149q162 0 258 -107q94 -103 94 -266h-633q-1 -170 79 -293q93 -143 255 -143q186 0 268 219zM642 629q-5 88 -21 124q-53 120 -178 120q-97 0 -159 -76 q-56 -67 -66 -168h424z" />
<glyph unicode="f" horiz-adv-x="682" d="M890 1251q0 -30 -26 -56.5t-56 -26.5q-6 0 -108 90t-140 90q-97 0 -124 -100q-14 -52 -14 -266v-66h236v-72h-236v-602q0 -128 28 -162q37 -44 99 -44h83v-36h-547v36h41q92 0 119 74q12 33 12 132v602h-178v72h178v60q0 270 179 386q90 58 203 58q105 0 193 -68 q58 -45 58 -101z" />
<glyph unicode="g" horiz-adv-x="1024" d="M987 836q0 -38 -15 -44q-8 -3 -51 -3h-119q56 -72 56 -184q0 -145 -111 -231q-101 -79 -250 -79q-68 0 -139 20q-75 -65 -75 -115q0 -44 81 -56q29 -4 140 -7q207 -5 267 -14q90 -13 144 -64q60 -56 60 -143q0 -113 -106 -212q-156 -146 -407 -146q-194 0 -326 87 q-75 49 -75 104q0 50 81 151q8 10 102 108q-95 57 -95 111q0 81 160 215q-174 85 -174 277q0 153 108 245q101 87 257 87q131 0 227 -64h194q43 0 50 -3q16 -7 16 -40zM683 580q0 159 -69 249q-51 66 -131 66q-92 0 -137 -78q-37 -63 -37 -162q0 -158 68 -245 q52 -66 132 -66q174 0 174 236zM902 -123q0 69 -103 90q-32 7 -154 10q-202 6 -346 23q-95 -103 -95 -176q0 -48 58 -84q100 -62 289 -62q123 0 219 39q132 54 132 160z" />
<glyph unicode="h" horiz-adv-x="1024" d="M1011 0h-450v36h21q105 0 124 77q3 12 3 94v324q0 113 -4 143q-20 148 -143 148q-106 0 -229 -131v-484q0 -70 3 -88q14 -83 145 -83v-36h-454v36q60 0 96 19q44 23 44 152v829q0 217 -30 242q-15 13 -42 13q-21 0 -68 -16l-14 35l274 112h46v-670q83 91 135 129 q85 62 171 62q165 0 217 -178q19 -65 19 -234v-324q0 -86 14 -119q22 -52 122 -52v-36z" />
<glyph unicode="i" horiz-adv-x="569" d="M398 1321q0 -42 -29.5 -72t-71.5 -30t-72 30t-30 72q0 43 29.5 72t72.5 29q42 0 71.5 -29.5t29.5 -71.5zM519 0h-445v36q102 0 127 56q13 29 13 115v353q0 150 -9 193q-12 57 -63 57q-28 0 -68 -15l-14 36l276 112h44v-736q0 -129 50 -157q25 -14 89 -14v-36z" />
<glyph unicode="j" horiz-adv-x="569" d="M400 1320q0 -43 -30 -72.5t-73 -29.5q-42 0 -72 30t-30 72q0 43 29.5 73t72.5 30t73 -30t30 -73zM383 21q0 -200 -78 -320q-92 -143 -282 -143q-60 0 -111 21q-68 28 -68 80q0 34 24 59.5t58 25.5q24 0 53 -13q15 -7 71 -55q45 -39 76 -39q61 0 81 80q11 44 11 189v652 q0 151 -9 194q-12 58 -63 58q-28 0 -68 -15l-14 36l276 112h43v-922z" />
<glyph unicode="k" horiz-adv-x="1024" d="M1036 0h-445v36q65 2 65 41q0 23 -40 74l-281 359v-304q0 -132 48 -157q23 -12 100 -13v-36h-466v36q113 0 137 51q15 32 15 114v834q0 219 -30 244q-15 13 -42 13q-21 0 -63 -17l-17 35l272 112h46v-912l233 213q73 67 86 86q8 12 8 24q0 47 -71 51v32h398v-32 q-144 -4 -256 -107l-235 -217l235 -297q94 -119 132 -156q48 -47 84 -61q25 -10 87 -10v-36z" />
<glyph unicode="l" horiz-adv-x="569" d="M527 0h-449v36q98 0 122 56q13 30 13 115v832q0 215 -29 239q-15 13 -40 13q-26 0 -66 -16l-17 35l273 112h45v-1215q0 -128 51 -156q27 -15 97 -15v-36z" />
<glyph unicode="m" horiz-adv-x="1593" d="M1584 0h-452v36h19q105 0 125 74q4 15 4 97v394q0 113 -27 158q-38 64 -125 64q-104 0 -236 -125l-2 -11l2 -43v-437q0 -70 3 -88q14 -83 146 -83v-36h-463v36q122 0 144 72q5 16 5 99v394q0 113 -33 161q-44 64 -123 64q-53 0 -107 -29q-84 -45 -128 -99v-491 q0 -129 50 -157q25 -14 99 -14v-36h-453v36q101 0 126 57q13 29 13 114v350q0 152 -9 195q-12 58 -63 58q-28 0 -67 -15l-15 36l276 112h43v-195q99 99 118 115q95 80 200 80q188 0 231 -195q81 94 139 135q85 60 181 60q157 0 219 -160q22 -57 22 -182v-394q0 -88 13 -118 q23 -53 125 -53v-36z" />
<glyph unicode="n" horiz-adv-x="1024" d="M1015 0h-453v36h19q105 0 125 77q4 15 4 94v375q0 238 -142 238q-119 0 -237 -130v-483q0 -92 11 -115q27 -56 138 -56v-36h-453v36h20q77 0 102 49q17 34 17 122v340q0 225 -30 250q-15 13 -42 13q-28 0 -67 -15l-15 36l276 112h43v-194q161 194 307 194q155 0 215 -161 q22 -59 22 -184v-391q0 -129 50 -157q25 -14 90 -14v-36z" />
<glyph unicode="o" horiz-adv-x="1024" d="M953 475q0 -132 -55 -247q-59 -124 -164.5 -190t-232.5 -66q-207 0 -329 165q-103 139 -103 312q0 130 57 246q60 124 166 186t220 62q208 0 334 -158q107 -135 107 -310zM767 398q0 243 -105 384q-72 96 -181 96q-134 0 -193 -142q-33 -79 -33 -203q0 -170 61 -309 q79 -181 228 -181q223 0 223 355z" />
<glyph unicode="p" horiz-adv-x="1024" d="M955 491q0 -237 -136 -392q-112 -127 -282 -127q-74 0 -128 21q-41 16 -90 60v-279q0 -74 3 -90q9 -49 49 -70q29 -15 103 -15v-37h-480v37h25q89 0 115 46q19 33 19 135v866q0 126 -33 149q-17 12 -48 12q-24 0 -61 -14l-12 32l282 114h38v-214q128 218 293 218 q138 0 230 -108q113 -132 113 -344zM777 397q0 210 -92 323q-64 78 -152 78q-48 0 -95 -24q-36 -18 -119 -108v-342q0 -110 9 -146q17 -68 77 -108q56 -38 129 -38q100 0 162 78q81 102 81 287z" />
<glyph unicode="q" horiz-adv-x="1024" d="M1024 -438h-462v37h19q94 0 117 55q12 29 12 111v394q-158 -187 -300 -187q-161 0 -258 148q-84 129 -84 297q0 225 121 371q129 155 350 155q115 0 191 -64q58 28 111 64h34v-1178q0 -64 4 -85q9 -47 46 -67q26 -14 99 -14v-37zM710 222v430q0 138 -89 191 q-50 30 -113 30q-142 0 -214 -127q-58 -102 -58 -256q0 -150 62 -253q75 -124 216 -124q111 0 196 109z" />
<glyph unicode="r" horiz-adv-x="682" d="M695 832q0 -38 -25 -65.5t-63 -27.5q-20 0 -81.5 34.5l-61.5 34.5q-17 0 -39 -20q-46 -42 -93 -135v-439q0 -94 32 -134q36 -44 128 -44v-36h-469v36q118 0 139 73q5 17 5 97v355q0 137 1 121q-5 93 -31 114q-17 14 -44 14q-31 0 -70 -15l-10 36l277 112h42v-206 q115 206 236 206q50 0 88.5 -31t38.5 -80z" />
<glyph unicode="s" horiz-adv-x="797" d="M725 250q0 -130 -90 -206q-84 -72 -216 -72q-86 0 -192 30q-35 10 -54 10q-23 0 -36 -26h-33v327h33q24 -121 92 -196q77 -86 192 -86q64 0 108 37q48 39 48 101q0 83 -85 147q-41 31 -164 91q-108 53 -157 100q-71 69 -71 171q0 118 81 192q78 73 197 73q54 0 131 -23 q51 -15 68 -15q27 0 46 38h33v-312h-33q-32 122 -78 178q-61 75 -171 75q-58 0 -104 -30q-52 -34 -52 -89q0 -106 158 -183l146 -71q203 -99 203 -261z" />
<glyph unicode="t" horiz-adv-x="569" d="M572 182q-70 -197 -231 -197q-111 0 -155 99q-21 47 -21 146v616h-145v33q123 49 215 199q20 32 64 139h31v-301h214v-70h-214v-594q0 -151 91 -151q78 0 112 81h39z" />
<glyph unicode="u" horiz-adv-x="1024" d="M1021 85l-274 -113h-45v194q-89 -97 -137 -132q-85 -62 -174 -62q-162 0 -212 159q-22 70 -22 198v409q0 102 -55 129q-26 13 -100 12v37h321v-613q0 -208 152 -208q99 0 227 130v519q0 81 -34 109q-30 24 -113 26v37h312v-555q0 -217 32 -244q16 -14 38 -14q31 0 70 17z " />
<glyph unicode="v" horiz-adv-x="1024" d="M1005 879q-52 -4 -72 -21q-33 -28 -63 -100l-325 -786h-41l-327 773q-37 88 -93 117q-17 9 -67 17v37h431v-37h-28q-80 0 -80 -70q0 -33 21 -83l213 -506l214 525q23 56 23 85q0 14 -8 23q-19 26 -97 26v37h299v-37z" />
<glyph unicode="w" horiz-adv-x="1479" d="M1460 879q-87 -13 -128 -118l-306 -789h-41l-229 585l-267 -585h-37l-294 770q-25 65 -51 92q-31 31 -94 45v37h384v-37q-86 -6 -86 -62q0 -29 17 -75l196 -527l197 429l-52 135q-22 58 -63 83q-23 14 -82 17v37h436v-37q-122 -5 -122 -77q0 -21 8 -41l208 -526l193 507 q20 53 20 86q0 48 -96 51v37h289v-37z" />
<glyph unicode="x" horiz-adv-x="1024" d="M999 0h-432v36q89 0 89 57q0 22 -64 116l-134 196l-147 -196q-68 -91 -68 -108q0 -61 90 -65v-36h-299v36q37 5 63 25q39 30 128 148l192 255l-174 252q-60 87 -88 113q-54 50 -128 50v37h431v-37q-74 0 -74 -51q0 -24 35 -74q17 -24 33 -50l65 -104l75 104 q72 100 72 125q0 50 -72 50v37h310v-37q-49 -3 -85 -27q-47 -32 -134 -148l-125 -167l228 -328q66 -95 87 -116q53 -53 126 -57v-36z" />
<glyph unicode="y" horiz-adv-x="1024" d="M1012 879q-63 -7 -101 -61q-6 -9 -34 -77l-373 -914q-44 -108 -119 -181q-89 -88 -191 -88q-53 0 -92 29q-43 32 -43 83q0 93 103 93q32 0 90 -22q39 -15 50 -15q75 0 137 151l65 159l-329 691q-14 30 -48 77q-26 36 -41 47q-22 16 -74 28v37h427v-37h-21q-90 0 -90 -68 q0 -40 33 -108l223 -462l205 506q17 42 17 81q0 33 -32 45q-16 6 -60 6v37h298v-37z" />
<glyph unicode="z" horiz-adv-x="909" d="M876 879l-614 -812h334q83 0 116 9q59 16 87 70q16 31 27 135h34l-11 -281h-808v36l608 810h-300q-77 0 -100 -5q-98 -21 -107 -179h-40l6 254h768v-37z" />
<glyph unicode="{" horiz-adv-x="684" d="M653 -290q0 -52 -37 -52h-139q-262 0 -262 263v292q0 52 -25 84q-8 14 -25.5 31t-45.5 37l-68 49q-31 22 -31 86q0 70 31 92l68 51q28 22 45.5 38.5t25.5 27.5q25 31 25 84v311q0 149 80 205q57 39 182 39h139q39 0 37 -56q0 -51 -37 -51h-137q-125 0 -125 -135v-318 q0 -77 -23 -115q-24 -39 -87 -85l-111 -78v-12l111 -80q64 -47 86 -93q24 -47 24 -128v-297q0 -135 125 -135h137q38 0 37 -55z" />
<glyph unicode="|" horiz-adv-x="458" d="M294 -286q0 -56 -51 -56h-31q-49 0 -49 56v1582q0 50 49 50h33q49 0 49 -58v-1574z" />
<glyph unicode="}" horiz-adv-x="684" d="M663 500q0 -63 -29 -86l-68 -49q-54 -39 -73 -68q-23 -34 -23 -84v-292q0 -263 -262 -263h-139q-39 0 -39 52q0 55 39 55h137q125 0 125 135v297q0 80 23 128q24 46 87 93l111 80v12l-111 78q-34 23 -56 44.5t-33 40.5q-21 37 -21 115v318q0 135 -125 135h-137 q-38 0 -39 51q-2 56 39 56h139q125 0 182 -39q80 -56 80 -205v-311q0 -52 23 -84q19 -24 73 -66l68 -51q29 -23 29 -92z" />
<glyph unicode="~" horiz-adv-x="1112" d="M1081 645q-135 -237 -311 -237q-68 0 -134 29l-104 46q-121 70 -202 70q-70 0 -127 -51q-39 -35 -107 -131l-76 100q123 217 305 217q74 0 240 -76q171 -58 209 -58q116 0 209 155z" />
<glyph unicode="&#xa2;" horiz-adv-x="874" d="M769 299q-79 -319 -330 -319q-67 0 -137 30l-121 -334h-61l133 365q-143 135 -143 346q0 216 133 334q103 88 233 88q10 0 23 -0.5t30 -1.5l119 328h62l-123 -344q157 -72 157 -175q0 -71 -79 -71q-49 0 -74 33q-12 17 -21 59q-10 55 -16 65l-195 -538q79 -53 140 -53 q110 0 174 73q25 33 69 125zM507 739q-27 11 -51 11q-109 0 -164 -97q-45 -80 -45 -196q0 -117 67 -244z" />
<glyph unicode="&#xa3;" horiz-adv-x="874" d="M836 258q-15 -113 -72 -188q-68 -90 -174 -90q-72 0 -150 45q-15 9 -47 32t-82 60q-68 -137 -159 -137q-46 0 -73.5 31t-27.5 79q0 30 10.5 54.5t29.5 42t45 27t57 9.5q27 0 71 -6q1 6 2 15t2 22v29q0 74 -18 280h-166v82h166q-12 127 -12 170q0 225 159 324 q72 45 158 45q82 0 145 -45q72 -50 72 -129q0 -14 -5.5 -26.5t-15 -23t-21.5 -16.5t-25 -6q-33 0 -54 33q-9 12 -14 69q-4 51 -28.5 74t-73.5 23q-156 0 -156 -240q0 -29 2.5 -68.5t7.5 -91.5l8 -92h221v-82h-221q1 -20 1.5 -34t0.5 -23q0 -148 -53 -307q162 -54 191 -60 q43 -10 88 -10q141 0 180 137zM254 147q-38 23 -72 23q-82 0 -82 -74q0 -67 56 -67q70 0 98 118z" />
<glyph unicode="&#xa7;" horiz-adv-x="874" d="M741 412q0 -179 -188 -293q104 -116 104 -217q0 -103 -69 -173q-68 -71 -172 -71q-83 0 -150 56q-65 56 -65 136q0 15 5.5 28.5t14.5 24t21 17t26 6.5q64 0 64 -76q0 -14 -8 -46q-7 -29 -7 -46q0 -32 37 -51q31 -16 66 -16q58 0 104 43q47 44 47 98q0 109 -176 240 q-122 91 -174 153q-88 100 -88 205q0 175 189 291q-105 117 -105 221q0 101 69 172q70 70 173 70q86 0 151 -54q66 -53 66 -135q0 -77 -68 -77q-67 0 -67 67q0 11 6 40q6 28 6 42q0 80 -94 80q-62 0 -105 -43t-43 -107q0 -55 23 -90q38 -60 129 -125q125 -92 184 -157 q94 -104 94 -213zM655 332q0 119 -192 268q-37 29 -65 52t-48 42q-129 -78 -129 -190q0 -80 66 -158q20 -23 53.5 -51.5t79.5 -63.5q31 -23 56.5 -44.5t47.5 -41.5q131 78 131 187z" />
<glyph unicode="&#xa9;" horiz-adv-x="1335" d="M1274 580q0 -163 -82 -306q-83 -143 -226 -222q-142 -79 -298 -79q-163 0 -306 82q-143 83 -222 224q-79 142 -79 301q0 163 84 307q84 146 226 222q143 77 297 77q161 0 304 -81q144 -81 222 -220q80 -146 80 -305zM1223 580q0 150 -76 280q-77 132 -208 203 q-132 72 -271 72q-148 0 -278 -75t-202 -202q-73 -133 -73 -278q0 -148 74 -279q76 -132 205 -203q131 -71 274 -71q148 0 279 74q129 74 203 205q73 130 73 274zM999 369q-119 -174 -327 -174q-165 0 -281 107q-115 108 -115 273q0 175 127 287q121 109 299 109 q60 0 158 -33q21 -6 31 -6q27 0 43 37h35l16 -238h-33q-62 201 -260 201q-138 0 -215 -107q-59 -85 -59 -225q0 -354 282 -354q169 0 269 139z" />
<glyph unicode="&#xab;" horiz-adv-x="1024" d="M961 -8h-60l-393 473l393 469h60l-244 -469zM508 -8h-57l-388 473l388 469h57l-244 -469z" />
<glyph unicode="&#xad;" horiz-adv-x="698" d="M615 465q0 -37 -47 -37h-442q-45 0 -45 37v55q0 37 45 37h442q47 0 47 -37v-55z" />
<glyph unicode="&#xb6;" horiz-adv-x="792" d="M797 1112h-115v-1491h-61v1491h-160v-1491h-62v893q-137 6 -209 31q-108 34 -159 125q-43 74 -43 170q0 189 170 278q84 41 215 41h424v-47z" />
<glyph unicode="&#xb7;" horiz-adv-x="512" d="M367 678q0 -48 -31.5 -79.5t-79.5 -31.5q-45 0 -78 33t-33 78q0 48 31.5 79t79.5 31t79.5 -31t31.5 -79z" />
<glyph unicode="&#xbb;" horiz-adv-x="1024" d="M961 463l-388 -471h-57l244 471l-244 471h57zM516 463l-393 -471h-60l244 471l-244 471h60z" />
<glyph unicode="&#xbc;" horiz-adv-x="1312" d="M1283 123h-92v-158h-100v158h-293v61l319 398h74v-389h92v-70zM1103 1184l-799 -1231h-76l799 1231h76zM405 567h-277v29q74 0 82 18q4 9 4 64v319q0 87 -12 101q-5 4 -17 4q-17 0 -57 -17l-14 23l176 76h28v-506q0 -51 7 -64q10 -18 80 -18v-29zM1091 193v268l-224 -268 h224z" />
<glyph unicode="&#xbd;" horiz-adv-x="1312" d="M1277 96l-53 -131h-422v27q323 251 323 389q0 55 -35.5 89t-89.5 34q-103 0 -141 -101h-39q27 179 207 179q78 0 137 -41q68 -45 68 -119q0 -134 -293 -373h160q110 0 139 47h39zM1082 1184l-798 -1231h-76l799 1231h75zM405 567h-277v29q74 0 82 18q4 9 4 64v319 q0 87 -12 101q-5 4 -17 4q-17 0 -57 -17l-14 23l176 76h28v-506q0 -51 7 -64q10 -18 80 -18v-29z" />
<glyph unicode="&#xbe;" horiz-adv-x="1312" d="M1283 123h-92v-158h-100v158h-293v61l319 398h74v-389h92v-70zM1091 1184l-797 -1231h-76l799 1231h74zM445 770q0 -107 -92 -166q-79 -49 -192 -49q-125 0 -125 53q0 39 49 39q23 0 71 -21q49 -20 76 -20q47 0 82 33t35 80q0 145 -198 141v25q59 0 107 36q48 37 48 97 q0 94 -104 94q-73 0 -125 -76l-33 15q66 133 197 133q63 0 112 -31q58 -37 58 -96q0 -58 -90 -131q124 -45 124 -156zM1091 193v268l-222 -268h222z" />
<glyph unicode="&#xd7;" horiz-adv-x="987" d="M844 281l-49 -50l-303 304l-302 -304l-49 50l301 301l-301 301l52 49l299 -299l301 299l49 -47l-301 -301z" />
<glyph unicode="&#xf7;" horiz-adv-x="1124" d="M648 987q0 -18 -7 -33.5t-19 -27t-28 -18.5t-34 -7t-34 7t-28 18.5t-19 27t-7 33.5q0 37 25.5 62.5t62.5 25.5q39 0 63.5 -24.5t24.5 -63.5zM1101 641h-1079v82h1079v-82zM648 367q0 -37 -25.5 -62.5t-62.5 -25.5q-18 0 -34 7t-28 19t-19 28t-7 34t7 34t19 28t28 19t34 7 q39 0 63.5 -26t24.5 -62z" />
<glyph unicode="&#x591;" d="M657 770q0 -119 -83 -202t-203 -83q-118 0 -200 84q-83 85 -83 201q0 118 83 203q82 84 200 84q120 0 203 -84q83 -85 83 -203zM578 770q0 88 -60 148q-58 61 -147 61q-86 0 -146 -61q-59 -61 -59 -148q0 -84 59 -146q60 -61 146 -61q89 0 147 61q60 61 60 146z" />
<glyph unicode="&#x592;" d="M657 770q0 -119 -83 -202t-203 -83q-118 0 -200 84q-83 85 -83 201q0 118 83 203q82 84 200 84q120 0 203 -84q83 -85 83 -203zM578 770q0 88 -60 148q-58 61 -147 61q-86 0 -146 -61q-59 -61 -59 -148q0 -84 59 -146q60 -61 146 -61q89 0 147 61q60 61 60 146z" />
<glyph unicode="&#x593;" d="M657 770q0 -119 -83 -202t-203 -83q-118 0 -200 84q-83 85 -83 201q0 118 83 203q82 84 200 84q120 0 203 -84q83 -85 83 -203zM578 770q0 88 -60 148q-58 61 -147 61q-86 0 -146 -61q-59 -61 -59 -148q0 -84 59 -146q60 -61 146 -61q89 0 147 61q60 61 60 146z" />
<glyph unicode="&#x594;" d="M657 770q0 -119 -83 -202t-203 -83q-118 0 -200 84q-83 85 -83 201q0 118 83 203q82 84 200 84q120 0 203 -84q83 -85 83 -203zM578 770q0 88 -60 148q-58 61 -147 61q-86 0 -146 -61q-59 -61 -59 -148q0 -84 59 -146q60 -61 146 -61q89 0 147 61q60 61 60 146z" />
<glyph unicode="&#x595;" d="M657 770q0 -119 -83 -202t-203 -83q-118 0 -200 84q-83 85 -83 201q0 118 83 203q82 84 200 84q120 0 203 -84q83 -85 83 -203zM578 770q0 88 -60 148q-58 61 -147 61q-86 0 -146 -61q-59 -61 -59 -148q0 -84 59 -146q60 -61 146 -61q89 0 147 61q60 61 60 146z" />
<glyph unicode="&#x596;" d="M657 770q0 -119 -83 -202t-203 -83q-118 0 -200 84q-83 85 -83 201q0 118 83 203q82 84 200 84q120 0 203 -84q83 -85 83 -203zM578 770q0 88 -60 148q-58 61 -147 61q-86 0 -146 -61q-59 -61 -59 -148q0 -84 59 -146q60 -61 146 -61q89 0 147 61q60 61 60 146z" />
<glyph unicode="&#x597;" d="M657 770q0 -119 -83 -202t-203 -83q-118 0 -200 84q-83 85 -83 201q0 118 83 203q82 84 200 84q120 0 203 -84q83 -85 83 -203zM578 770q0 88 -60 148q-58 61 -147 61q-86 0 -146 -61q-59 -61 -59 -148q0 -84 59 -146q60 -61 146 -61q89 0 147 61q60 61 60 146z" />
<glyph unicode="&#x598;" d="M657 770q0 -119 -83 -202t-203 -83q-118 0 -200 84q-83 85 -83 201q0 118 83 203q82 84 200 84q120 0 203 -84q83 -85 83 -203zM578 770q0 88 -60 148q-58 61 -147 61q-86 0 -146 -61q-59 -61 -59 -148q0 -84 59 -146q60 -61 146 -61q89 0 147 61q60 61 60 146z" />
<glyph unicode="&#x599;" d="M657 770q0 -119 -83 -202t-203 -83q-118 0 -200 84q-83 85 -83 201q0 118 83 203q82 84 200 84q120 0 203 -84q83 -85 83 -203zM578 770q0 88 -60 148q-58 61 -147 61q-86 0 -146 -61q-59 -61 -59 -148q0 -84 59 -146q60 -61 146 -61q89 0 147 61q60 61 60 146z" />
<glyph unicode="&#x59a;" d="M657 770q0 -119 -83 -202t-203 -83q-118 0 -200 84q-83 85 -83 201q0 118 83 203q82 84 200 84q120 0 203 -84q83 -85 83 -203zM578 770q0 88 -60 148q-58 61 -147 61q-86 0 -146 -61q-59 -61 -59 -148q0 -84 59 -146q60 -61 146 -61q89 0 147 61q60 61 60 146z" />
<glyph unicode="&#x59b;" d="M657 770q0 -119 -83 -202t-203 -83q-118 0 -200 84q-83 85 -83 201q0 118 83 203q82 84 200 84q120 0 203 -84q83 -85 83 -203zM578 770q0 88 -60 148q-58 61 -147 61q-86 0 -146 -61q-59 -61 -59 -148q0 -84 59 -146q60 -61 146 -61q89 0 147 61q60 61 60 146z" />
<glyph unicode="&#x59c;" d="M657 770q0 -119 -83 -202t-203 -83q-118 0 -200 84q-83 85 -83 201q0 118 83 203q82 84 200 84q120 0 203 -84q83 -85 83 -203zM578 770q0 88 -60 148q-58 61 -147 61q-86 0 -146 -61q-59 -61 -59 -148q0 -84 59 -146q60 -61 146 -61q89 0 147 61q60 61 60 146z" />
<glyph unicode="&#x59d;" d="M657 770q0 -119 -83 -202t-203 -83q-118 0 -200 84q-83 85 -83 201q0 118 83 203q82 84 200 84q120 0 203 -84q83 -85 83 -203zM578 770q0 88 -60 148q-58 61 -147 61q-86 0 -146 -61q-59 -61 -59 -148q0 -84 59 -146q60 -61 146 -61q89 0 147 61q60 61 60 146z" />
<glyph unicode="&#x59e;" d="M657 770q0 -119 -83 -202t-203 -83q-118 0 -200 84q-83 85 -83 201q0 118 83 203q82 84 200 84q120 0 203 -84q83 -85 83 -203zM578 770q0 88 -60 148q-58 61 -147 61q-86 0 -146 -61q-59 -61 -59 -148q0 -84 59 -146q60 -61 146 -61q89 0 147 61q60 61 60 146z" />
<glyph unicode="&#x59f;" d="M657 770q0 -119 -83 -202t-203 -83q-118 0 -200 84q-83 85 -83 201q0 118 83 203q82 84 200 84q120 0 203 -84q83 -85 83 -203zM578 770q0 88 -60 148q-58 61 -147 61q-86 0 -146 -61q-59 -61 -59 -148q0 -84 59 -146q60 -61 146 -61q89 0 147 61q60 61 60 146z" />
<glyph unicode="&#x5a0;" d="M657 770q0 -119 -83 -202t-203 -83q-118 0 -200 84q-83 85 -83 201q0 118 83 203q82 84 200 84q120 0 203 -84q83 -85 83 -203zM578 770q0 88 -60 148q-58 61 -147 61q-86 0 -146 -61q-59 -61 -59 -148q0 -84 59 -146q60 -61 146 -61q89 0 147 61q60 61 60 146z" />
<glyph unicode="&#x5a1;" d="M657 770q0 -119 -83 -202t-203 -83q-118 0 -200 84q-83 85 -83 201q0 118 83 203q82 84 200 84q120 0 203 -84q83 -85 83 -203zM578 770q0 88 -60 148q-58 61 -147 61q-86 0 -146 -61q-59 -61 -59 -148q0 -84 59 -146q60 -61 146 -61q89 0 147 61q60 61 60 146z" />
<glyph unicode="&#x5a3;" d="M657 770q0 -119 -83 -202t-203 -83q-118 0 -200 84q-83 85 -83 201q0 118 83 203q82 84 200 84q120 0 203 -84q83 -85 83 -203zM578 770q0 88 -60 148q-58 61 -147 61q-86 0 -146 -61q-59 -61 -59 -148q0 -84 59 -146q60 -61 146 -61q89 0 147 61q60 61 60 146z" />
<glyph unicode="&#x5a4;" d="M657 770q0 -119 -83 -202t-203 -83q-118 0 -200 84q-83 85 -83 201q0 118 83 203q82 84 200 84q120 0 203 -84q83 -85 83 -203zM578 770q0 88 -60 148q-58 61 -147 61q-86 0 -146 -61q-59 -61 -59 -148q0 -84 59 -146q60 -61 146 -61q89 0 147 61q60 61 60 146z" />
<glyph unicode="&#x5a5;" d="M657 770q0 -119 -83 -202t-203 -83q-118 0 -200 84q-83 85 -83 201q0 118 83 203q82 84 200 84q120 0 203 -84q83 -85 83 -203zM578 770q0 88 -60 148q-58 61 -147 61q-86 0 -146 -61q-59 -61 -59 -148q0 -84 59 -146q60 -61 146 -61q89 0 147 61q60 61 60 146z" />
<glyph unicode="&#x5a6;" d="M657 770q0 -119 -83 -202t-203 -83q-118 0 -200 84q-83 85 -83 201q0 118 83 203q82 84 200 84q120 0 203 -84q83 -85 83 -203zM578 770q0 88 -60 148q-58 61 -147 61q-86 0 -146 -61q-59 -61 -59 -148q0 -84 59 -146q60 -61 146 -61q89 0 147 61q60 61 60 146z" />
<glyph unicode="&#x5a7;" d="M657 770q0 -119 -83 -202t-203 -83q-118 0 -200 84q-83 85 -83 201q0 118 83 203q82 84 200 84q120 0 203 -84q83 -85 83 -203zM578 770q0 88 -60 148q-58 61 -147 61q-86 0 -146 -61q-59 -61 -59 -148q0 -84 59 -146q60 -61 146 -61q89 0 147 61q60 61 60 146z" />
<glyph unicode="&#x5a8;" d="M657 770q0 -119 -83 -202t-203 -83q-118 0 -200 84q-83 85 -83 201q0 118 83 203q82 84 200 84q120 0 203 -84q83 -85 83 -203zM578 770q0 88 -60 148q-58 61 -147 61q-86 0 -146 -61q-59 -61 -59 -148q0 -84 59 -146q60 -61 146 -61q89 0 147 61q60 61 60 146z" />
<glyph unicode="&#x5a9;" d="M657 770q0 -119 -83 -202t-203 -83q-118 0 -200 84q-83 85 -83 201q0 118 83 203q82 84 200 84q120 0 203 -84q83 -85 83 -203zM578 770q0 88 -60 148q-58 61 -147 61q-86 0 -146 -61q-59 -61 -59 -148q0 -84 59 -146q60 -61 146 -61q89 0 147 61q60 61 60 146z" />
<glyph unicode="&#x5aa;" d="M657 770q0 -119 -83 -202t-203 -83q-118 0 -200 84q-83 85 -83 201q0 118 83 203q82 84 200 84q120 0 203 -84q83 -85 83 -203zM578 770q0 88 -60 148q-58 61 -147 61q-86 0 -146 -61q-59 -61 -59 -148q0 -84 59 -146q60 -61 146 -61q89 0 147 61q60 61 60 146z" />
<glyph unicode="&#x5ab;" d="M657 770q0 -119 -83 -202t-203 -83q-118 0 -200 84q-83 85 -83 201q0 118 83 203q82 84 200 84q120 0 203 -84q83 -85 83 -203zM578 770q0 88 -60 148q-58 61 -147 61q-86 0 -146 -61q-59 -61 -59 -148q0 -84 59 -146q60 -61 146 -61q89 0 147 61q60 61 60 146z" />
<glyph unicode="&#x5ac;" d="M657 770q0 -119 -83 -202t-203 -83q-118 0 -200 84q-83 85 -83 201q0 118 83 203q82 84 200 84q120 0 203 -84q83 -85 83 -203zM578 770q0 88 -60 148q-58 61 -147 61q-86 0 -146 -61q-59 -61 -59 -148q0 -84 59 -146q60 -61 146 -61q89 0 147 61q60 61 60 146z" />
<glyph unicode="&#x5ad;" d="M657 770q0 -119 -83 -202t-203 -83q-118 0 -200 84q-83 85 -83 201q0 118 83 203q82 84 200 84q120 0 203 -84q83 -85 83 -203zM578 770q0 88 -60 148q-58 61 -147 61q-86 0 -146 -61q-59 -61 -59 -148q0 -84 59 -146q60 -61 146 -61q89 0 147 61q60 61 60 146z" />
<glyph unicode="&#x5ae;" d="M657 770q0 -119 -83 -202t-203 -83q-118 0 -200 84q-83 85 -83 201q0 118 83 203q82 84 200 84q120 0 203 -84q83 -85 83 -203zM578 770q0 88 -60 148q-58 61 -147 61q-86 0 -146 -61q-59 -61 -59 -148q0 -84 59 -146q60 -61 146 -61q89 0 147 61q60 61 60 146z" />
<glyph unicode="&#x5af;" d="M657 770q0 -119 -83 -202t-203 -83q-118 0 -200 84q-83 85 -83 201q0 118 83 203q82 84 200 84q120 0 203 -84q83 -85 83 -203zM578 770q0 88 -60 148q-58 61 -147 61q-86 0 -146 -61q-59 -61 -59 -148q0 -84 59 -146q60 -61 146 -61q89 0 147 61q60 61 60 146z" />
<glyph unicode="&#x5b0;" horiz-adv-x="2" d="M88 -243q0 -18 -7 -33.5t-18.5 -27t-27 -18.5t-33.5 -7t-34 7t-28 18.5t-19 27t-7 33.5t7.5 33t19.5 26.5t28 18t33 6.5q37 0 61.5 -24.5t24.5 -59.5zM88 -512q0 -17 -7 -32.5t-18.5 -27.5t-27 -19t-33.5 -7t-34 7t-28 19t-19 27.5t-7 32.5q0 18 7.5 33t19.5 26.5t28 18 t33 6.5q37 0 61.5 -24.5t24.5 -59.5z" />
<glyph unicode="&#x5b1;" horiz-adv-x="2" d="M-137 -243q0 -18 -7 -33.5t-18.5 -27t-27 -18.5t-33.5 -7q-17 0 -32.5 6.5t-27.5 18t-19 27.5t-7 34q0 16 7 31.5t18.5 27t27 18.5t33.5 7q37 0 61.5 -24.5t24.5 -59.5zM98 -243q0 -18 -7 -33.5t-18.5 -27t-27 -18.5t-33.5 -7q-17 0 -32.5 7t-27.5 18.5t-19.5 27 t-7.5 33.5q0 34 28 59q26 25 59 25q37 0 61.5 -23.5t24.5 -60.5zM-10 -450q0 -18 -7 -33.5t-18.5 -27t-27 -18.5t-33.5 -7q-17 0 -32.5 6.5t-27.5 18t-19 27.5t-7 34q0 35 25.5 59.5t60.5 24.5t60.5 -24.5t25.5 -59.5zM311 -243q0 -15 -6 -27.5t-16.5 -22t-23.5 -15 t-27 -5.5q-70 0 -70 70q0 74 70 74q73 0 73 -74zM311 -458q0 -29 -21.5 -50.5t-51.5 -21.5q-70 0 -70 72q0 30 20.5 50.5t49.5 20.5q73 0 73 -71z" />
<glyph unicode="&#x5b2;" horiz-adv-x="2" d="M287 -243q0 -29 -22.5 -49.5t-51.5 -20.5q-70 0 -70 70q0 74 70 74q74 0 74 -74zM287 -458q0 -29 -21.5 -50.5t-52.5 -21.5q-70 0 -70 72q0 71 70 71q74 0 74 -71zM-258 -305q-26 0 -26 31v66q0 30 26 30h301q27 0 27 -30v-66q0 -31 -27 -31h-301z" />
<glyph unicode="&#x5b3;" horiz-adv-x="2" d="M287 -243q0 -29 -22.5 -49.5t-51.5 -20.5q-70 0 -70 70q0 74 70 74q33 0 53.5 -20.5t20.5 -53.5zM287 -458q0 -29 -21.5 -50.5t-52.5 -21.5q-70 0 -70 72q0 71 70 71q74 0 74 -71zM43 -178q27 0 27 -30v-66q0 -31 -27 -31h-118q0 -42 20 -88l23 -51q8 -18 8 -35 t-6.5 -31.5t-18 -26t-26.5 -18t-33 -6.5t-33 6.5t-26.5 18t-18 26t-6.5 31.5t8 35l23 51q22 48 22 88h-119q-26 0 -26 31v66q0 30 26 30h301z" />
<glyph unicode="&#x5b4;" horiz-adv-x="2" d="M92 -243q0 -35 -28 -62q-27 -28 -62 -28q-36 0 -64 28q-28 27 -28 62q0 18 7.5 34t20.5 28t29.5 19t34.5 7q39 0 64.5 -25.5t25.5 -62.5z" />
<glyph unicode="&#x5b5;" horiz-adv-x="2" d="M-45 -243q0 -18 -7 -33.5t-18.5 -27t-27 -18.5t-33.5 -7q-17 0 -32.5 7t-27.5 18.5t-19 27t-7 33.5t7 33t19 26.5t27.5 18t32.5 6.5q86 0 86 -84zM219 -243q0 -18 -7 -33.5t-18.5 -27t-27 -18.5t-33.5 -7t-33.5 7t-27 18.5t-18.5 27t-7 33.5q0 35 25.5 59.5t60.5 24.5 q37 0 61.5 -24.5t24.5 -59.5z" />
<glyph unicode="&#x5b6;" horiz-adv-x="2" d="M-45 -243q0 -18 -7 -33.5t-18.5 -27t-27 -18.5t-33.5 -7q-17 0 -32.5 7t-27.5 18.5t-19 27t-7 33.5t7 33t19 26.5t27.5 18t32.5 6.5q86 0 86 -84zM219 -243q0 -18 -7 -33.5t-18.5 -27t-27 -18.5t-33.5 -7t-33.5 7t-27 18.5t-18.5 27t-7 33.5q0 35 25.5 59.5t60.5 24.5 q37 0 61.5 -24.5t24.5 -59.5zM94 -468q0 -18 -7 -33.5t-18.5 -27.5t-27 -19t-33.5 -7q-17 0 -32.5 7t-27 19t-18.5 27.5t-7 33.5q0 34 25.5 58.5t59.5 24.5q37 0 61.5 -24.5t24.5 -58.5z" />
<glyph unicode="&#x5b7;" horiz-adv-x="2" d="M-190 -305q-27 0 -27 31v66q0 30 27 30h383q26 0 26 -30v-66q0 -31 -26 -31h-383z" />
<glyph unicode="&#x5b8;" horiz-adv-x="2" d="M193 -178q26 0 26 -30v-66q0 -31 -26 -31h-158q0 -48 18 -88l23 -51q8 -18 8 -35q0 -35 -24.5 -58.5t-57.5 -23.5q-17 0 -32 6.5t-26.5 18t-18 26t-6.5 31.5t8 35l22 51q21 45 21 88h-160q-27 0 -27 31v66q0 30 27 30h383z" />
<glyph unicode="&#x5b9;" horiz-adv-x="2" d="M86 1170q0 -18 -7 -33.5t-18.5 -27t-27 -18.5t-33.5 -7q-17 0 -32.5 7t-27.5 18.5t-19 27t-7 33.5q0 16 7 31.5t19 27t27.5 18.5t32.5 7q39 0 62.5 -23.5t23.5 -60.5z" />
<glyph unicode="&#x5bb;" horiz-adv-x="2" d="M92 -243q0 -18 -7 -33.5t-18.5 -27t-27 -18.5t-33.5 -7t-33.5 7t-27 18.5t-18.5 27t-7 33.5q0 35 25.5 59.5t60.5 24.5q86 0 86 -84zM235 -417q0 -18 -7 -33.5t-18.5 -27t-27 -18.5t-33.5 -7q-17 0 -32.5 7t-27 18.5t-18.5 27t-7 33.5t7 33t18.5 26.5t27 18t32.5 6.5 q37 0 61.5 -23.5t24.5 -60.5zM376 -589q0 -18 -7 -33.5t-18.5 -27t-27 -18.5t-33.5 -7q-17 0 -32.5 7t-27.5 18.5t-19 27t-7 33.5q0 32 26 58t60 26q86 0 86 -84z" />
<glyph unicode="&#x5bc;" horiz-adv-x="2" d="M86 457q0 -18 -7 -33.5t-18.5 -27t-27 -18.5t-33.5 -7q-17 0 -32.5 7t-27.5 18.5t-19 27t-7 33.5q0 32 27 58q28 26 59 26q37 0 61.5 -23.5t24.5 -60.5z" />
<glyph unicode="&#x5bd;" horiz-adv-x="2" d="M67 -587q0 -27 -31 -27h-65q-31 0 -31 27v383q0 26 31 26h65q31 0 31 -26v-383z" />
<glyph unicode="&#x5be;" horiz-adv-x="543" d="M455 885q0 -37 -33 -37h-309q-32 0 -32 37v55q0 37 32 37h309q33 0 33 -37v-55z" />
<glyph unicode="&#x5bf;" horiz-adv-x="543" d="M455 885q0 -37 -33 -37h-309q-32 0 -32 37v55q0 37 32 37h309q33 0 33 -37v-55z" />
<glyph unicode="&#x5c0;" horiz-adv-x="458" d="M294 -286q0 -56 -51 -56h-31q-49 0 -49 56v1582q0 50 49 50h33q49 0 49 -58v-1574z" />
<glyph unicode="&#x5c1;" horiz-adv-x="2" d="M1106 1170q0 -18 -7 -33.5t-18.5 -27t-27 -18.5t-33.5 -7q-17 0 -32.5 7t-27.5 18.5t-19 27t-7 33.5q0 16 7 31.5t19 27t27.5 18.5t32.5 7q39 0 62.5 -23.5t23.5 -60.5z" />
<glyph unicode="&#x5c2;" horiz-adv-x="2" d="M216 1170q0 -18 -7 -33.5t-18.5 -27t-27 -18.5t-33.5 -7q-17 0 -32.5 7t-27.5 18.5t-19 27t-7 33.5q0 16 7 31.5t19 27t27.5 18.5t32.5 7q39 0 62.5 -23.5t23.5 -60.5z" />
<glyph unicode="&#x5c3;" horiz-adv-x="389" d="M253 678q0 -27 -4 -45t-13.5 -28.5t-26.5 -14.5t-42 -4q-71 0 -82 41q-4 15 -4 51q0 27 3.5 45.5t13 30t26 16t43.5 4.5q63 0 78 -31q8 -21 8 -65zM253 104q0 -27 -4 -45t-13.5 -28.5t-26.5 -14.5t-42 -4q-71 0 -82 41q-4 15 -4 51q0 28 3.5 46.5t13 30t26 16t43.5 4.5 q63 0 78 -31q8 -21 8 -66z" />
<glyph unicode="&#x5c4;" horiz-adv-x="2" d="M86 1170q0 -18 -7 -33.5t-18.5 -27t-27 -18.5t-33.5 -7q-17 0 -32.5 7t-27.5 18.5t-19 27t-7 33.5q0 16 7 31.5t19 27t27.5 18.5t32.5 7q39 0 62.5 -23.5t23.5 -60.5z" />
<glyph unicode="&#x5d0;" horiz-adv-x="997" d="M811 0q-22 0 -39 23l-389 507q-37 -25 -61 -96q-7 -19 -19 -62.5t-29 -113.5l-57 -233q-6 -25 -29 -25h-106q-25 0 -16 31l59 250q34 147 121 237l80 82l-258 340q-9 11 -5 23q5 14 15 14h115q28 0 45 -23l337 -450h5q21 13 53 69q40 74 59 162l49 219q5 23 33 23h100 q31 0 23 -35l-41 -180q-31 -140 -135 -244l-86 -86l305 -395q10 -12 6 -25q-5 -12 -16 -12h-119z" />
<glyph unicode="&#x5d1;" horiz-adv-x="946" d="M876 31q0 -31 -27 -31h-750q-28 0 -28 29v77q0 29 28 29h531v582q0 92 -92 119q-45 14 -166 14q-54 0 -114 -4t-128 -12q-31 -4 -31 20v68q0 28 19 34q99 31 327 31q334 0 334 -282v-570h66q31 0 31 -26v-78z" />
<glyph unicode="&#x5d2;" horiz-adv-x="686" d="M552 27q0 -27 -25 -27h-94q-24 0 -24 27v231q0 12 -11 12q-8 0 -18 -24l-29 -74q-18 -47 -47 -76q-52 -52 -166 -102q-29 -12 -45 -12q-26 0 -26 18v94q0 22 24 33q50 22 138 80q85 57 129 109t44 112v315q0 63 -41 86q-29 15 -98 15q-40 0 -68 -1t-44 -3q-35 -5 -35 22 v64q0 26 24 35q58 18 166 18q115 0 174 -59q72 -72 72 -205v-688z" />
<glyph unicode="&#x5d3;" horiz-adv-x="929" d="M840 887q0 -29 -29 -31l-121 -12v-809q0 -35 -28 -35h-93q-30 0 -30 35v809h-451q-29 0 -29 30v74q0 29 29 29h727q25 0 25 -25v-65z" />
<glyph unicode="&#x5d4;" horiz-adv-x="1034" d="M901 35q0 -35 -29 -35h-92q-30 0 -30 35v686q0 88 -64 113q-51 18 -235 18q-72 0 -295 -18q-50 -5 -50 20v70q0 26 48 37q71 13 153 19.5t178 6.5q216 0 303 -43q113 -53 113 -203v-706zM283 35q0 -35 -31 -35h-92q-29 0 -29 35v334q0 84 39 168q12 26 33 26h57 q23 0 23 -31v-497z" />
<glyph unicode="&#x5d5;" horiz-adv-x="417" d="M285 35q0 -35 -31 -35h-92q-29 0 -29 35v911q0 31 31 31h92q29 0 29 -33v-909z" />
<glyph unicode="&#x5d6;" horiz-adv-x="657" d="M586 893q0 -28 -29 -33l-88 -14q-84 -15 -111 -88q-18 -51 -18 -148q0 -57 22 -166l76 -407q6 -37 -20 -37h-99q-29 0 -34 29l-68 385q-18 102 -18 159q-4 142 94 271h-199q-33 0 -33 33v67q0 33 31 33h463q31 0 31 -33v-51z" />
<glyph unicode="&#x5d7;" horiz-adv-x="1060" d="M928 35q0 -35 -29 -35h-92q-31 0 -31 35v686q0 73 -57 102q-58 29 -211 29q-66 0 -121.5 -3.5t-101.5 -10.5v-803q0 -35 -31 -35h-92q-29 0 -29 29v884q0 30 31 37q154 35 375 35q217 0 303 -60q86 -59 86 -204v-686z" />
<glyph unicode="&#x5d8;" horiz-adv-x="1042" d="M920 344q0 -194 -109 -281q-96 -75 -291 -75q-94 0 -180.5 7t-165.5 21q-41 9 -41 43v885q0 33 33 33h82q37 0 37 -31v-815q42 -5 110.5 -7.5t165.5 -2.5q209 0 209 205v370q0 92 -55 125q-38 25 -121 25q-10 0 -34 -1t-62 -3q-37 -1 -37 24v58q0 22 24 34q39 21 156 21 q279 0 279 -297v-338z" />
<glyph unicode="&#x5d9;" horiz-adv-x="397" d="M273 455q0 -35 -30 -35h-92q-29 0 -29 35v491q0 31 29 31h94q28 0 28 -33v-489z" />
<glyph unicode="&#x5da;" horiz-adv-x="901" d="M768 -374q0 -35 -31 -35h-90q-31 0 -31 35v1079q0 82 -55 113q-56 32 -199 32q-67 0 -129 -2.5t-122 -7.5q-17 -1 -26 -1.5t-11 -0.5q-15 4 -15 22v58q0 39 37 43q79 11 159 16.5t161 5.5q352 0 352 -281v-1076z" />
<glyph unicode="&#x5db;" horiz-adv-x="903" d="M795 487q0 -287 -103 -397q-92 -98 -301 -98q-75 0 -141.5 7t-126.5 21q-35 9 -35 35v66q0 29 43 22q90 -12 248 -12q131 0 188 33q70 40 70 155v340q0 117 -88 160q-61 29 -191 29q-60 0 -115.5 -3.5t-107.5 -10.5q-47 -8 -47 20v64q0 24 41 38q84 29 262 29 q185 0 273 -61q72 -55 100 -142q31 -96 31 -295z" />
<glyph unicode="&#x5dc;" horiz-adv-x="897" d="M499 51q-20 -51 -39 -51h-107q-31 0 -18 37l299 805h-539q-28 0 -28 35v378q0 21 7 27t23 6h90q31 0 31 -33v-278h569q27 0 27 -39q0 -20 -4 -35z" />
<glyph unicode="&#x5dd;" horiz-adv-x="1099" d="M966 35q0 -35 -29 -35h-735q-29 0 -29 35v796l-57 -2q-35 -2 -35 21v78q0 30 37 33q155 11 262 16.5t168 5.5q233 0 325 -50q93 -50 93 -190v-708zM814 133v590q0 93 -108 119q-38 6 -191 6q-78 0 -190 -6v-709h489z" />
<glyph unicode="&#x5de;" horiz-adv-x="1085" d="M963 332q0 -163 -82 -252q-83 -90 -219 -90q-118 0 -177 22q-24 10 -24 31v59q0 31 43 27q14 -1 45 -1.5t80 -0.5q184 0 184 188v338q0 109 -61 152q-52 37 -166 37h-82q-115 0 -168 -29q-33 -17 -33 -45v-733q0 -35 -31 -35h-92q-28 0 -28 35v708q0 32 -29 66l-43 49 q-25 26 -25 35q0 18 25 39l45 41q23 20 33 20t26 -16l33 -33q29 -25 66 -70q76 76 149 97q46 12 178 12q353 0 353 -321v-330z" />
<glyph unicode="&#x5df;" horiz-adv-x="417" d="M285 -374q0 -35 -31 -35h-92q-29 0 -29 35v1314q0 37 29 37h94q29 0 29 -37v-1314z" />
<glyph unicode="&#x5e0;" horiz-adv-x="630" d="M497 27q0 -27 -29 -27h-373q-28 0 -28 29v75q0 31 28 31h252v608q0 109 -131 109q-37 0 -76 -6q-43 -7 -43 18v62q0 28 25 37q44 16 127 16q127 0 187.5 -63.5t60.5 -208.5v-680z" />
<glyph unicode="&#x5e1;" horiz-adv-x="1081" d="M962 504q0 -265 -86 -383q-98 -135 -336 -135h-2q-257 0 -351 133q-73 106 -73 366q0 255 59 355q94 153 365 153h2q272 0 362 -145q60 -96 60 -344zM808 596q0 149 -59 211q-55 53 -172 53h-91q-110 0 -161 -55q-56 -62 -56 -201v-223q0 -264 234 -264h74q55 0 98 18.5 t72.5 53t45 83.5t15.5 111v213z" />
<glyph unicode="&#x5e2;" horiz-adv-x="964" d="M806 514q-21 -153 -80 -250q-26 -45 -69 -88t-103 -88q-34 -25 -90.5 -55.5t-136.5 -68.5q-64 -31 -114 -53t-87 -35q-41 -15 -47 -15q-12 0 -19 15l-20 51q-6 13 -6 22q0 21 20 29q177 63 252 116l-2 6l-85 300l-150 538q-11 39 24 39h99q30 0 38 -29l142 -551 q30 -115 20 -252l6 -6q42 23 103 62q69 57 102 114q37 72 51 195l50 436q4 31 32 31h105q25 0 20 -29z" />
<glyph unicode="&#x5e3;" horiz-adv-x="1017" d="M884 -374q0 -35 -29 -35h-92q-29 0 -29 35v1050q0 98 -41 137t-155 39q-112 0 -179 -1t-90 -3v-287q0 -10 9 -10h221q26 0 26 -29v-71q0 -27 -32 -27h-326q-45 0 -45 43v446q0 26 47 37q73 17 152 26t167 9q241 0 324 -90q72 -78 72 -242v-1027z" />
<glyph unicode="&#x5e4;" horiz-adv-x="1013" d="M894 346q0 -177 -82 -260q-90 -94 -299 -94q-191 0 -360 33q-31 6 -31 30v60q0 28 35 26q105 -7 196 -10.5t170 -3.5q127 0 176 43q39 34 39 113v393q0 98 -40 137q-41 39 -156 39q-111 0 -178 -1t-91 -3v-291q0 -6 11 -6h211q34 0 34 -29v-69q0 -29 -32 -29h-324 q-45 0 -45 51v443q0 21 47 32q145 35 318 35q242 0 325 -90q76 -82 76 -242v-307z" />
<glyph unicode="&#x5e5;" horiz-adv-x="940" d="M861 -372q19 -37 -12 -37h-98q-29 0 -45 31l-501 988l-167 330q-6 13 -6 23q0 14 20 14h99q33 0 53 -39l157 -326l99 -196q53 29 135 280l72 222q18 59 51 59h94q35 0 18 -47l-83 -254q-71 -212 -246 -342z" />
<glyph unicode="&#x5e6;" horiz-adv-x="940" d="M763 672q-28 -85 -68 -140q-17 -23 -51 -57t-86 -82l229 -256q19 -19 19 -57v-29q0 -51 -43 -51h-645q-25 0 -25 27v77q0 29 25 29h497q18 0 2 14l-153 160q-179 184 -264 348l-146 275q-24 47 17 47h90q39 0 57 -33l127 -237q106 -198 154 -246q45 22 112 233l80 248 q14 35 49 35h90q32 0 19 -43z" />
<glyph unicode="&#x5e7;" horiz-adv-x="1052" d="M684 51q-26 -51 -53 -51h-96q-33 0 -15 39l264 557q25 50 25 102q0 64 -42 104t-118 40h-524q-29 0 -29 30v76q0 29 29 29h543q120 0 202 -76t82 -201q0 -80 -43 -172zM289 -374q0 -35 -31 -35h-88q-29 0 -29 35v734q0 97 37 193q12 33 33 33h51q27 0 27 -29v-931z" />
<glyph unicode="&#x5e8;" horiz-adv-x="901" d="M767 31q0 -31 -31 -31h-90q-31 0 -31 29v667q0 84 -49 117q-56 39 -209 39q-69 0 -130 -4t-115 -12q-45 -8 -45 22v57q0 28 30 39q93 31 293 31q377 0 377 -291v-663z" />
<glyph unicode="&#x5e9;" horiz-adv-x="1245" d="M1011 307q-38 -181 -146 -254q-92 -63 -266 -63h-65q-155 0 -234 63q-86 71 -113 230l-108 659q-6 35 22 35h99q33 0 37 -31l81 -553l37 13q101 32 121 167l55 369q8 35 37 35h97q28 0 22 -33l-65 -373q-28 -163 -170 -219l-119 -47l6 -41q25 -145 184 -145h92 q200 0 234 172l135 663q5 23 29 23h104q31 0 23 -35z" />
<glyph unicode="&#x5ea;" horiz-adv-x="1128" d="M406 27q0 -27 -33 -27h-293q-29 0 -29 29v75q0 31 29 31h176v701h-88q-35 0 -35 24v70q0 28 39 33q166 18 406 18q238 0 323 -53q94 -61 94 -244v-649q0 -35 -30 -35h-91q-30 0 -30 35v661q0 90 -48 119q-49 29 -206 29q-61 0 -106.5 -0.5t-77.5 -1.5v-815z" />
<glyph unicode="&#x5f0;" horiz-adv-x="700" d="M609 712q0 -110 -77 -187q-76 -76 -187 -76q-108 0 -185 77t-77 186q0 110 77 187t185 77q110 0 187 -77t77 -187zM536 712q0 81 -56 137q-55 55 -135 55t-135 -55t-55 -137q0 -79 55 -135q56 -56 135 -56t135 56q56 58 56 135z" />
<glyph unicode="&#x5f1;" horiz-adv-x="700" d="M609 712q0 -110 -77 -187q-76 -76 -187 -76q-108 0 -185 77t-77 186q0 110 77 187t185 77q110 0 187 -77t77 -187zM536 712q0 81 -56 137q-55 55 -135 55t-135 -55t-55 -137q0 -79 55 -135q56 -56 135 -56t135 56q56 58 56 135z" />
<glyph unicode="&#x5f2;" horiz-adv-x="700" d="M609 712q0 -110 -77 -187q-76 -76 -187 -76q-108 0 -185 77t-77 186q0 110 77 187t185 77q110 0 187 -77t77 -187zM536 712q0 81 -56 137q-55 55 -135 55t-135 -55t-55 -137q0 -79 55 -135q56 -56 135 -56t135 56q56 58 56 135z" />
<glyph unicode="&#x5f3;" horiz-adv-x="313" d="M222 922q-38 -119 -127 -215q-22 -25 -41 -25q-20 0 -22 14q0 7 4 19l98 346q15 47 60 47h32q41 0 41 -33q0 -9 -4 -20z" />
<glyph unicode="&#x5f4;" horiz-adv-x="563" d="M474 922q-38 -119 -127 -215q-22 -25 -41 -25q-22 0 -22 14q0 7 4 19l98 346q14 47 59 47h33q39 0 39 -33q0 -4 -0.5 -9t-1.5 -11zM222 922q-38 -119 -127 -215q-22 -25 -41 -25q-20 0 -22 14q0 7 4 19l98 346q15 47 60 47h32q41 0 41 -33q0 -9 -4 -20z" />
<glyph unicode="&#x2000;" horiz-adv-x="711" />
<glyph unicode="&#x2001;" horiz-adv-x="1423" />
<glyph unicode="&#x2002;" horiz-adv-x="711" />
<glyph unicode="&#x2003;" horiz-adv-x="1423" />
<glyph unicode="&#x2004;" horiz-adv-x="474" />
<glyph unicode="&#x2005;" horiz-adv-x="355" />
<glyph unicode="&#x2006;" horiz-adv-x="237" />
<glyph unicode="&#x2007;" horiz-adv-x="237" />
<glyph unicode="&#x2008;" horiz-adv-x="177" />
<glyph unicode="&#x2009;" horiz-adv-x="284" />
<glyph unicode="&#x200a;" horiz-adv-x="79" />
<glyph unicode="&#x200c;" d="M657 770q0 -119 -83 -202t-203 -83q-118 0 -200 84q-83 85 -83 201q0 118 83 203q82 84 200 84q120 0 203 -84q83 -85 83 -203zM578 770q0 88 -60 148q-58 61 -147 61q-86 0 -146 -61q-59 -61 -59 -148q0 -84 59 -146q60 -61 146 -61q89 0 147 61q60 61 60 146z" />
<glyph unicode="&#x200d;" d="M657 770q0 -119 -83 -202t-203 -83q-118 0 -200 84q-83 85 -83 201q0 118 83 203q82 84 200 84q120 0 203 -84q83 -85 83 -203zM578 770q0 88 -60 148q-58 61 -147 61q-86 0 -146 -61q-59 -61 -59 -148q0 -84 59 -146q60 -61 146 -61q89 0 147 61q60 61 60 146z" />
<glyph unicode="&#x200e;" d="M657 770q0 -119 -83 -202t-203 -83q-118 0 -200 84q-83 85 -83 201q0 118 83 203q82 84 200 84q120 0 203 -84q83 -85 83 -203zM578 770q0 88 -60 148q-58 61 -147 61q-86 0 -146 -61q-59 -61 -59 -148q0 -84 59 -146q60 -61 146 -61q89 0 147 61q60 61 60 146z" />
<glyph unicode="&#x200f;" d="M657 770q0 -119 -83 -202t-203 -83q-118 0 -200 84q-83 85 -83 201q0 118 83 203q82 84 200 84q120 0 203 -84q83 -85 83 -203zM578 770q0 88 -60 148q-58 61 -147 61q-86 0 -146 -61q-59 -61 -59 -148q0 -84 59 -146q60 -61 146 -61q89 0 147 61q60 61 60 146z" />
<glyph unicode="&#x2010;" horiz-adv-x="698" d="M615 465q0 -37 -47 -37h-442q-45 0 -45 37v55q0 37 45 37h442q47 0 47 -37v-55z" />
<glyph unicode="&#x2011;" horiz-adv-x="698" d="M615 465q0 -37 -47 -37h-442q-45 0 -45 37v55q0 37 45 37h442q47 0 47 -37v-55z" />
<glyph unicode="&#x2012;" horiz-adv-x="698" d="M615 465q0 -37 -47 -37h-442q-45 0 -45 37v55q0 37 45 37h442q47 0 47 -37v-55z" />
<glyph unicode="&#x2013;" horiz-adv-x="698" d="M615 465q0 -37 -47 -37h-442q-45 0 -45 37v55q0 37 45 37h442q47 0 47 -37v-55z" />
<glyph unicode="&#x2014;" horiz-adv-x="938" d="M851 465q0 -37 -68 -37h-637q-65 0 -65 37v55q0 37 65 37h637q68 0 68 -37v-55z" />
<glyph unicode="&#x2018;" horiz-adv-x="313" d="M77 868q38 119 127 215q22 25 41 25q20 0 22 -14q0 -7 -4 -19l-98 -346q-15 -47 -60 -47h-32q-41 0 -41 33q0 9 4 20z" />
<glyph unicode="&#x2019;" horiz-adv-x="313" d="M222 922q-38 -119 -127 -215q-22 -25 -41 -25q-20 0 -22 14q0 7 4 19l98 346q15 47 60 47h32q41 0 41 -33q0 -9 -4 -20z" />
<glyph unicode="&#x201c;" horiz-adv-x="563" d="M75 868q38 119 127 215q22 25 41 25q22 0 22 -14q0 -7 -4 -19l-98 -346q-14 -47 -59 -47h-33q-39 0 -39 33q0 4 0.5 9t1.5 11zM327 868q38 119 127 215q22 25 41 25q20 0 22 -14q0 -7 -4 -19l-98 -346q-15 -47 -60 -47h-32q-41 0 -41 33q0 9 4 20z" />
<glyph unicode="&#x201d;" horiz-adv-x="563" d="M474 922q-38 -119 -127 -215q-22 -25 -41 -25q-22 0 -22 14q0 7 4 19l98 346q14 47 59 47h33q39 0 39 -33q0 -4 -0.5 -9t-1.5 -11zM222 922q-38 -119 -127 -215q-22 -25 -41 -25q-20 0 -22 14q0 7 4 19l98 346q15 47 60 47h32q41 0 41 -33q0 -9 -4 -20z" />
<glyph unicode="&#x2022;" horiz-adv-x="717" d="M614 677q0 -112 -69.5 -181.5t-181.5 -69.5t-181.5 69.5t-69.5 181.5t69.5 181.5t181.5 69.5t181.5 -69.5t69.5 -181.5z" />
<glyph unicode="&#x202f;" horiz-adv-x="284" />
<glyph unicode="&#x2039;" horiz-adv-x="681" d="M562 -8h-57l-387 473l387 469h57l-244 -469z" />
<glyph unicode="&#x203a;" horiz-adv-x="681" d="M566 463l-395 -471h-57l243 471l-243 471h57z" />
<glyph unicode="&#x205f;" horiz-adv-x="355" />
<glyph unicode="&#x20aa;" horiz-adv-x="1355" d="M1214 238q0 -155 -86 -205q-76 -43 -305 -43q-99 0 -180.5 3.5t-147.5 10.5q-41 5 -41 55v590q0 51 47 51h50q47 0 47 -51v-524q54 -4 106.5 -6t106.5 -2q159 0 200 12q60 18 60 90v705q0 53 47 53h49q47 0 47 -53v-686zM905 319q0 -51 -47 -51h-49q-47 0 -47 51v453 q0 63 -107 80q-14 2 -52 3t-100 1q-163 0 -219 -10v-793q0 -53 -47 -53h-49q-47 0 -47 53v858q0 45 39 54q88 18 311 18q256 0 322 -33q92 -45 92 -176v-455z" />
<glyph unicode="&#x22c5;" horiz-adv-x="662" d="M565 627q0 -98 -68 -166q-68 -66 -161 -66q-99 0 -166 66q-68 68 -68 166t67 164q67 67 167 67q96 0 162 -67q67 -66 67 -164z" />
<glyph unicode="&#x25a0;" d="M657 770q0 -119 -83 -202t-203 -83q-118 0 -200 84q-83 85 -83 201q0 118 83 203q82 84 200 84q120 0 203 -84q83 -85 83 -203zM578 770q0 88 -60 148q-58 61 -147 61q-86 0 -146 -61q-59 -61 -59 -148q0 -84 59 -146q60 -61 146 -61q89 0 147 61q60 61 60 146z" />
<glyph unicode="&#x25a1;" d="M657 770q0 -119 -83 -202t-203 -83q-118 0 -200 84q-83 85 -83 201q0 118 83 203q82 84 200 84q120 0 203 -84q83 -85 83 -203zM578 770q0 88 -60 148q-58 61 -147 61q-86 0 -146 -61q-59 -61 -59 -148q0 -84 59 -146q60 -61 146 -61q89 0 147 61q60 61 60 146z" />
<glyph unicode="&#x25c6;" d="M657 770q0 -119 -83 -202t-203 -83q-118 0 -200 84q-83 85 -83 201q0 118 83 203q82 84 200 84q120 0 203 -84q83 -85 83 -203zM578 770q0 88 -60 148q-58 61 -147 61q-86 0 -146 -61q-59 -61 -59 -148q0 -84 59 -146q60 -61 146 -61q89 0 147 61q60 61 60 146z" />
<glyph unicode="&#x25c7;" d="M657 770q0 -119 -83 -202t-203 -83q-118 0 -200 84q-83 85 -83 201q0 118 83 203q82 84 200 84q120 0 203 -84q83 -85 83 -203zM578 770q0 88 -60 148q-58 61 -147 61q-86 0 -146 -61q-59 -61 -59 -148q0 -84 59 -146q60 -61 146 -61q89 0 147 61q60 61 60 146z" />
<glyph unicode="&#x25cb;" d="M657 770q0 -119 -83 -202t-203 -83q-118 0 -200 84q-83 85 -83 201q0 118 83 203q82 84 200 84q120 0 203 -84q83 -85 83 -203zM578 770q0 88 -60 148q-58 61 -147 61q-86 0 -146 -61q-59 -61 -59 -148q0 -84 59 -146q60 -61 146 -61q89 0 147 61q60 61 60 146z" />
<glyph unicode="&#x25cc;" d="M657 770q0 -119 -83 -202t-203 -83q-118 0 -200 84q-83 85 -83 201q0 118 83 203q82 84 200 84q120 0 203 -84q83 -85 83 -203zM578 770q0 88 -60 148q-58 61 -147 61q-86 0 -146 -61q-59 -61 -59 -148q0 -84 59 -146q60 -61 146 -61q89 0 147 61q60 61 60 146z" />
<glyph unicode="&#x25fc;" horiz-adv-x="915" d="M0 915h915v-915h-915v915z" />
<glyph unicode="&#x2605;" d="M657 770q0 -119 -83 -202t-203 -83q-118 0 -200 84q-83 85 -83 201q0 118 83 203q82 84 200 84q120 0 203 -84q83 -85 83 -203zM578 770q0 88 -60 148q-58 61 -147 61q-86 0 -146 -61q-59 -61 -59 -148q0 -84 59 -146q60 -61 146 -61q89 0 147 61q60 61 60 146z" />
<glyph unicode="&#x274f;" d="M657 770q0 -119 -83 -202t-203 -83q-118 0 -200 84q-83 85 -83 201q0 118 83 203q82 84 200 84q120 0 203 -84q83 -85 83 -203zM578 770q0 88 -60 148q-58 61 -147 61q-86 0 -146 -61q-59 -61 -59 -148q0 -84 59 -146q60 -61 146 -61q89 0 147 61q60 61 60 146z" />
<glyph unicode="&#xe802;" horiz-adv-x="901" d="M768 -374q0 -35 -31 -35h-90q-31 0 -31 35v1079q0 82 -55 113q-56 32 -199 32q-67 0 -129 -2.5t-122 -7.5q-17 -1 -26 -1.5t-11 -0.5q-15 4 -15 22v58q0 39 37 43q79 11 159 16.5t161 5.5q352 0 352 -281v-1076zM435 449q0 -18 -7 -33.5t-18.5 -27t-27 -18.5t-33.5 -7 t-34 7t-28 18.5t-19 27t-7 33.5t7.5 33t19.5 26.5t28 18t33 6.5q37 0 61.5 -24.5t24.5 -59.5zM435 180q0 -17 -7 -32.5t-18.5 -27.5t-27 -19t-33.5 -7t-34 7t-28 19t-19 27.5t-7 32.5q0 18 7.5 33t19.5 26.5t28 18t33 6.5q37 0 61.5 -24.5t24.5 -59.5z" />
<glyph unicode="&#xe803;" horiz-adv-x="901" d="M768 -374q0 -35 -31 -35h-90q-31 0 -31 35v1079q0 82 -55 113q-56 32 -199 32q-67 0 -129 -2.5t-122 -7.5q-17 -1 -26 -1.5t-11 -0.5q-15 4 -15 22v58q0 39 37 43q79 11 159 16.5t161 5.5q352 0 352 -281v-1076zM546 481q26 0 26 -30v-66q0 -31 -26 -31h-168 q0 -48 18 -88l23 -51q8 -18 8 -35q0 -35 -24.5 -58.5t-57.5 -23.5q-17 0 -32 6.5t-26.5 18t-18 26t-6.5 31.5t8 35l22 51q21 45 21 88h-170q-27 0 -27 31v66q0 30 27 30h403z" />
<glyph unicode="&#xe804;" horiz-adv-x="897" d="M499 51q-20 -51 -39 -51h-107q-31 0 -18 37l299 805h-539q-28 0 -28 35v378q0 21 7 27t23 6h90q31 0 31 -33v-278h569q27 0 27 -39q0 -20 -4 -35zM55 1170q0 -18 -7 -33.5t-18.5 -27t-27 -18.5t-33.5 -7q-17 0 -32.5 7t-27.5 18.5t-19 27t-7 33.5q0 16 7 31.5t19 27 t27.5 18.5t32.5 7q39 0 62.5 -23.5t23.5 -60.5z" />
<glyph unicode="&#xe805;" horiz-adv-x="897" d="M499 51q-20 -51 -39 -51h-107q-31 0 -18 37l299 805h-539q-28 0 -28 35v378q0 21 7 27t23 6h90q31 0 31 -33v-278h569q27 0 27 -39q0 -20 -4 -35zM380 517q0 -18 -7 -33.5t-18.5 -27t-27 -18.5t-33.5 -7t-33.5 7t-27 18.5t-18.5 27t-7 33.5q0 32 27 58q28 26 59 26 q37 0 61.5 -23.5t24.5 -60.5zM55 1170q0 -18 -7 -33.5t-18.5 -27t-27 -18.5t-33.5 -7q-17 0 -32.5 7t-27.5 18.5t-19 27t-7 33.5q0 16 7 31.5t19 27t27.5 18.5t32.5 7q39 0 62.5 -23.5t23.5 -60.5z" />
<glyph unicode="&#xfb1d;" horiz-adv-x="700" d="M609 712q0 -110 -77 -187q-76 -76 -187 -76q-108 0 -185 77t-77 186q0 110 77 187t185 77q110 0 187 -77t77 -187zM536 712q0 81 -56 137q-55 55 -135 55t-135 -55t-55 -137q0 -79 55 -135q56 -56 135 -56t135 56q56 58 56 135z" />
<glyph unicode="&#xfb1e;" horiz-adv-x="700" d="M609 712q0 -110 -77 -187q-76 -76 -187 -76q-108 0 -185 77t-77 186q0 110 77 187t185 77q110 0 187 -77t77 -187zM536 712q0 81 -56 137q-55 55 -135 55t-135 -55t-55 -137q0 -79 55 -135q56 -56 135 -56t135 56q56 58 56 135z" />
<glyph unicode="&#xfb1f;" horiz-adv-x="700" d="M609 712q0 -110 -77 -187q-76 -76 -187 -76q-108 0 -185 77t-77 186q0 110 77 187t185 77q110 0 187 -77t77 -187zM536 712q0 81 -56 137q-55 55 -135 55t-135 -55t-55 -137q0 -79 55 -135q56 -56 135 -56t135 56q56 58 56 135z" />
<glyph unicode="&#xfb20;" horiz-adv-x="700" d="M609 712q0 -110 -77 -187q-76 -76 -187 -76q-108 0 -185 77t-77 186q0 110 77 187t185 77q110 0 187 -77t77 -187zM536 712q0 81 -56 137q-55 55 -135 55t-135 -55t-55 -137q0 -79 55 -135q56 -56 135 -56t135 56q56 58 56 135z" />
<glyph unicode="&#xfb21;" horiz-adv-x="700" d="M609 712q0 -110 -77 -187q-76 -76 -187 -76q-108 0 -185 77t-77 186q0 110 77 187t185 77q110 0 187 -77t77 -187zM536 712q0 81 -56 137q-55 55 -135 55t-135 -55t-55 -137q0 -79 55 -135q56 -56 135 -56t135 56q56 58 56 135z" />
<glyph unicode="&#xfb22;" horiz-adv-x="700" d="M609 712q0 -110 -77 -187q-76 -76 -187 -76q-108 0 -185 77t-77 186q0 110 77 187t185 77q110 0 187 -77t77 -187zM536 712q0 81 -56 137q-55 55 -135 55t-135 -55t-55 -137q0 -79 55 -135q56 -56 135 -56t135 56q56 58 56 135z" />
<glyph unicode="&#xfb23;" horiz-adv-x="700" d="M609 712q0 -110 -77 -187q-76 -76 -187 -76q-108 0 -185 77t-77 186q0 110 77 187t185 77q110 0 187 -77t77 -187zM536 712q0 81 -56 137q-55 55 -135 55t-135 -55t-55 -137q0 -79 55 -135q56 -56 135 -56t135 56q56 58 56 135z" />
<glyph unicode="&#xfb24;" horiz-adv-x="700" d="M609 712q0 -110 -77 -187q-76 -76 -187 -76q-108 0 -185 77t-77 186q0 110 77 187t185 77q110 0 187 -77t77 -187zM536 712q0 81 -56 137q-55 55 -135 55t-135 -55t-55 -137q0 -79 55 -135q56 -56 135 -56t135 56q56 58 56 135z" />
<glyph unicode="&#xfb25;" horiz-adv-x="700" d="M609 712q0 -110 -77 -187q-76 -76 -187 -76q-108 0 -185 77t-77 186q0 110 77 187t185 77q110 0 187 -77t77 -187zM536 712q0 81 -56 137q-55 55 -135 55t-135 -55t-55 -137q0 -79 55 -135q56 -56 135 -56t135 56q56 58 56 135z" />
<glyph unicode="&#xfb26;" horiz-adv-x="700" d="M609 712q0 -110 -77 -187q-76 -76 -187 -76q-108 0 -185 77t-77 186q0 110 77 187t185 77q110 0 187 -77t77 -187zM536 712q0 81 -56 137q-55 55 -135 55t-135 -55t-55 -137q0 -79 55 -135q56 -56 135 -56t135 56q56 58 56 135z" />
<glyph unicode="&#xfb27;" horiz-adv-x="700" d="M609 712q0 -110 -77 -187q-76 -76 -187 -76q-108 0 -185 77t-77 186q0 110 77 187t185 77q110 0 187 -77t77 -187zM536 712q0 81 -56 137q-55 55 -135 55t-135 -55t-55 -137q0 -79 55 -135q56 -56 135 -56t135 56q56 58 56 135z" />
<glyph unicode="&#xfb28;" horiz-adv-x="700" d="M609 712q0 -110 -77 -187q-76 -76 -187 -76q-108 0 -185 77t-77 186q0 110 77 187t185 77q110 0 187 -77t77 -187zM536 712q0 81 -56 137q-55 55 -135 55t-135 -55t-55 -137q0 -79 55 -135q56 -56 135 -56t135 56q56 58 56 135z" />
<glyph unicode="&#xfb29;" horiz-adv-x="698" d="M656 469q0 -37 -47 -37h-524q-45 0 -45 37v43q0 37 45 37h205v196q0 48 37 48h43q37 0 37 -48v-196h202q47 0 47 -37v-43z" />
<glyph unicode="&#xfb2a;" horiz-adv-x="1245" d="M1011 307q-38 -181 -146 -254q-92 -63 -266 -63h-65q-155 0 -234 63q-86 71 -113 230l-108 659q-6 35 22 35h99q33 0 37 -31l81 -553l37 13q101 32 121 167l55 369q8 35 37 35h97q28 0 22 -33l-65 -373q-28 -163 -170 -219l-119 -47l6 -41q25 -145 184 -145h92 q200 0 234 172l135 663q5 23 29 23h104q31 0 23 -35zM1105 1170q0 -18 -7 -33.5t-18.5 -27t-27 -18.5t-33.5 -7q-17 0 -32.5 7t-27.5 18.5t-19 27t-7 33.5q0 16 7 31.5t19 27t27.5 18.5t32.5 7q39 0 62.5 -23.5t23.5 -60.5z" />
<glyph unicode="&#xfb2b;" horiz-adv-x="1245" d="M1011 307q-38 -181 -146 -254q-92 -63 -266 -63h-65q-155 0 -234 63q-86 71 -113 230l-108 659q-6 35 22 35h99q33 0 37 -31l81 -553l37 13q101 32 121 167l55 369q8 35 37 35h97q28 0 22 -33l-65 -373q-28 -163 -170 -219l-119 -47l6 -41q25 -145 184 -145h92 q200 0 234 172l135 663q5 23 29 23h104q31 0 23 -35zM215 1170q0 -18 -7 -33.5t-18.5 -27t-27 -18.5t-33.5 -7q-17 0 -32.5 7t-27.5 18.5t-19 27t-7 33.5q0 16 7 31.5t19 27t27.5 18.5t32.5 7q39 0 62.5 -23.5t23.5 -60.5z" />
<glyph unicode="&#xfb2c;" horiz-adv-x="1245" d="M1011 307q-38 -181 -146 -254q-92 -63 -266 -63h-65q-155 0 -234 63q-86 71 -113 230l-108 659q-6 35 22 35h99q33 0 37 -31l81 -553l37 13q101 32 121 167l55 369q8 35 37 35h97q28 0 22 -33l-65 -373q-28 -163 -170 -219l-119 -47l6 -41q25 -145 184 -145h92 q200 0 234 172l135 663q5 23 29 23h104q31 0 23 -35zM1105 1170q0 -18 -7 -33.5t-18.5 -27t-27 -18.5t-33.5 -7q-17 0 -32.5 7t-27.5 18.5t-19 27t-7 33.5q0 16 7 31.5t19 27t27.5 18.5t32.5 7q39 0 62.5 -23.5t23.5 -60.5zM830 507q0 -18 -7 -33.5t-18.5 -27t-27 -18.5 t-33.5 -7t-33.5 7t-27 18.5t-18.5 27t-7 33.5q0 32 27 58q28 26 59 26q37 0 61.5 -23.5t24.5 -60.5z" />
<glyph unicode="&#xfb2d;" horiz-adv-x="1245" d="M1011 307q-38 -181 -146 -254q-92 -63 -266 -63h-65q-155 0 -234 63q-86 71 -113 230l-108 659q-6 35 22 35h99q33 0 37 -31l81 -553l37 13q101 32 121 167l55 369q8 35 37 35h97q28 0 22 -33l-65 -373q-28 -163 -170 -219l-119 -47l6 -41q25 -145 184 -145h92 q200 0 234 172l135 663q5 23 29 23h104q31 0 23 -35zM215 1170q0 -18 -7 -33.5t-18.5 -27t-27 -18.5t-33.5 -7q-17 0 -32.5 7t-27.5 18.5t-19 27t-7 33.5q0 16 7 31.5t19 27t27.5 18.5t32.5 7q39 0 62.5 -23.5t23.5 -60.5zM830 507q0 -18 -7 -33.5t-18.5 -27t-27 -18.5 t-33.5 -7t-33.5 7t-27 18.5t-18.5 27t-7 33.5q0 32 27 58q28 26 59 26q37 0 61.5 -23.5t24.5 -60.5z" />
<glyph unicode="&#xfb31;" horiz-adv-x="946" d="M876 31q0 -31 -27 -31h-750q-28 0 -28 29v77q0 29 28 29h531v582q0 92 -92 119q-45 14 -166 14q-54 0 -114 -4t-128 -12q-31 -4 -31 20v68q0 28 19 34q99 31 327 31q334 0 334 -282v-570h66q31 0 31 -26v-78zM390 487q0 -18 -7 -33.5t-18.5 -27t-27 -18.5t-33.5 -7 t-33.5 7t-27 18.5t-18.5 27t-7 33.5q0 32 27 58q28 26 59 26q37 0 61.5 -23.5t24.5 -60.5z" />
<glyph unicode="&#xfb32;" horiz-adv-x="686" d="M552 27q0 -27 -25 -27h-94q-24 0 -24 27v231q0 12 -11 12q-8 0 -18 -24l-29 -74q-18 -47 -47 -76q-52 -52 -166 -102q-29 -12 -45 -12q-26 0 -26 18v94q0 22 24 33q50 22 138 80q85 57 129 109t44 112v315q0 63 -41 86q-29 15 -98 15q-40 0 -68 -1t-44 -3q-35 -5 -35 22 v64q0 26 24 35q58 18 166 18q115 0 174 -59q72 -72 72 -205v-688zM320 537q0 -18 -7 -33.5t-18.5 -27t-27 -18.5t-33.5 -7t-33.5 7t-27 18.5t-18.5 27t-7 33.5q0 32 27 58q28 26 59 26q37 0 61.5 -23.5t24.5 -60.5z" />
<glyph unicode="&#xfb33;" horiz-adv-x="929" d="M840 887q0 -29 -29 -31l-121 -12v-809q0 -35 -28 -35h-93q-30 0 -30 35v809h-451q-29 0 -29 30v74q0 29 29 29h727q25 0 25 -25v-65zM371 457q0 -18 -7 -33.5t-18.5 -27t-27 -18.5t-33.5 -7t-33.5 7t-27 18.5t-18.5 27t-7 33.5q0 32 27 58q28 26 59 26q37 0 61.5 -23.5 t24.5 -60.5z" />
<glyph unicode="&#xfb34;" horiz-adv-x="1034" d="M901 35q0 -35 -29 -35h-92q-30 0 -30 35v686q0 88 -64 113q-51 18 -235 18q-72 0 -295 -18q-50 -5 -50 20v70q0 26 48 37q71 13 153 19.5t178 6.5q216 0 303 -43q113 -53 113 -203v-706zM283 35q0 -35 -31 -35h-92q-29 0 -29 35v334q0 84 39 168q12 26 33 26h57 q23 0 23 -31v-497zM591 447q0 -18 -7 -33.5t-18.5 -27t-27 -18.5t-33.5 -7t-33.5 7t-27 18.5t-18.5 27t-7 33.5q0 32 27 58q28 26 59 26q37 0 61.5 -23.5t24.5 -60.5z" />
<glyph unicode="&#xfb35;" horiz-adv-x="417" d="M285 35q0 -35 -31 -35h-92q-29 0 -29 35v911q0 31 31 31h92q29 0 29 -33v-909zM111 487q0 -18 -7 -33.5t-18.5 -27t-27 -18.5t-33.5 -7t-33.5 7t-27 18.5t-18.5 27t-7 33.5q0 32 27 58q28 26 59 26q37 0 61.5 -23.5t24.5 -60.5z" />
<glyph unicode="&#xfb36;" horiz-adv-x="657" d="M586 893q0 -28 -29 -33l-88 -14q-84 -15 -111 -88q-18 -51 -18 -148q0 -57 22 -166l76 -407q6 -37 -20 -37h-99q-29 0 -34 29l-68 385q-18 102 -18 159q-4 142 94 271h-199q-33 0 -33 33v67q0 33 31 33h463q31 0 31 -33v-51zM171 447q0 -18 -7 -33.5t-18.5 -27t-27 -18.5 t-33.5 -7t-33.5 7t-27 18.5t-18.5 27t-7 33.5q0 32 27 58q28 26 59 26q37 0 61.5 -23.5t24.5 -60.5z" />
<glyph unicode="&#xfb38;" horiz-adv-x="1042" d="M920 344q0 -194 -109 -281q-96 -75 -291 -75q-94 0 -180.5 7t-165.5 21q-41 9 -41 43v885q0 33 33 33h82q37 0 37 -31v-815q42 -5 110.5 -7.5t165.5 -2.5q209 0 209 205v370q0 92 -55 125q-38 25 -121 25q-10 0 -34 -1t-62 -3q-37 -1 -37 24v58q0 22 24 34q39 21 156 21 q279 0 279 -297v-338zM611 477q0 -18 -7 -33.5t-18.5 -27t-27 -18.5t-33.5 -7t-33.5 7t-27 18.5t-18.5 27t-7 33.5q0 32 27 58q28 26 59 26q37 0 61.5 -23.5t24.5 -60.5z" />
<glyph unicode="&#xfb39;" horiz-adv-x="397" d="M273 455q0 -35 -30 -35h-92q-29 0 -29 35v491q0 31 29 31h94q28 0 28 -33v-489zM100 687q0 -18 -7 -33.5t-18.5 -27t-27 -18.5t-33.5 -7t-33.5 7t-27 18.5t-18.5 27t-7 33.5q0 32 27 58q28 26 59 26q37 0 61.5 -23.5t24.5 -60.5z" />
<glyph unicode="&#xfb3a;" horiz-adv-x="901" d="M768 -374q0 -35 -31 -35h-90q-31 0 -31 35v1079q0 82 -55 113q-56 32 -199 32q-67 0 -129 -2.5t-122 -7.5q-17 -1 -26 -1.5t-11 -0.5q-15 4 -15 22v58q0 39 37 43q79 11 159 16.5t161 5.5q352 0 352 -281v-1076zM421 447q0 -18 -7 -33.5t-18.5 -27t-27 -18.5t-33.5 -7 t-33.5 7t-27 18.5t-18.5 27t-7 33.5q0 32 27 58q28 26 59 26q37 0 61.5 -23.5t24.5 -60.5z" />
<glyph unicode="&#xfb3b;" horiz-adv-x="903" d="M795 487q0 -287 -103 -397q-92 -98 -301 -98q-75 0 -141.5 7t-126.5 21q-35 9 -35 35v66q0 29 43 22q90 -12 248 -12q131 0 188 33q70 40 70 155v340q0 117 -88 160q-61 29 -191 29q-60 0 -115.5 -3.5t-107.5 -10.5q-47 -8 -47 20v64q0 24 41 38q84 29 262 29 q185 0 273 -61q72 -55 100 -142q31 -96 31 -295zM391 487q0 -18 -7 -33.5t-18.5 -27t-27 -18.5t-33.5 -7t-33.5 7t-27 18.5t-18.5 27t-7 33.5q0 32 27 58q28 26 59 26q37 0 61.5 -23.5t24.5 -60.5z" />
<glyph unicode="&#xfb3c;" horiz-adv-x="897" d="M499 51q-20 -51 -39 -51h-107q-31 0 -18 37l299 805h-539q-28 0 -28 35v378q0 21 7 27t23 6h90q31 0 31 -33v-278h569q27 0 27 -39q0 -20 -4 -35zM380 517q0 -18 -7 -33.5t-18.5 -27t-27 -18.5t-33.5 -7t-33.5 7t-27 18.5t-18.5 27t-7 33.5q0 32 27 58q28 26 59 26 q37 0 61.5 -23.5t24.5 -60.5z" />
<glyph unicode="&#xfb3e;" horiz-adv-x="1085" d="M963 332q0 -163 -82 -252q-83 -90 -219 -90q-118 0 -177 22q-24 10 -24 31v59q0 31 43 27q14 -1 45 -1.5t80 -0.5q184 0 184 188v338q0 109 -61 152q-52 37 -166 37h-82q-115 0 -168 -29q-33 -17 -33 -45v-733q0 -35 -31 -35h-92q-28 0 -28 35v708q0 32 -29 66l-43 49 q-25 26 -25 35q0 18 25 39l45 41q23 20 33 20t26 -16l33 -33q29 -25 66 -70q76 76 149 97q46 12 178 12q353 0 353 -321v-330zM641 487q0 -18 -7 -33.5t-18.5 -27t-27 -18.5t-33.5 -7t-33.5 7t-27 18.5t-18.5 27t-7 33.5q0 32 27 58q28 26 59 26q37 0 61.5 -23.5t24.5 -60.5 z" />
<glyph unicode="&#xfb40;" horiz-adv-x="630" d="M497 27q0 -27 -29 -27h-373q-28 0 -28 29v75q0 31 28 31h252v608q0 109 -131 109q-37 0 -76 -6q-43 -7 -43 18v62q0 28 25 37q44 16 127 16q127 0 187.5 -63.5t60.5 -208.5v-680zM290 487q0 -18 -7 -33.5t-18.5 -27t-27 -18.5t-33.5 -7t-33.5 7t-27 18.5t-18.5 27 t-7 33.5q0 32 27 58q28 26 59 26q37 0 61.5 -23.5t24.5 -60.5z" />
<glyph unicode="&#xfb41;" horiz-adv-x="1081" d="M962 504q0 -265 -86 -383q-98 -135 -336 -135h-2q-257 0 -351 133q-73 106 -73 366q0 255 59 355q94 153 365 153h2q272 0 362 -145q60 -96 60 -344zM808 596q0 149 -59 211q-55 53 -172 53h-91q-110 0 -161 -55q-56 -62 -56 -201v-223q0 -264 234 -264h74q55 0 98 18.5 t72.5 53t45 83.5t15.5 111v213zM620 487q0 -18 -7 -33.5t-18.5 -27t-27 -18.5t-33.5 -7t-33.5 7t-27 18.5t-18.5 27t-7 33.5q0 32 27 58q28 26 59 26q37 0 61.5 -23.5t24.5 -60.5z" />
<glyph unicode="&#xfb43;" horiz-adv-x="1017" d="M884 -374q0 -35 -29 -35h-92q-29 0 -29 35v1050q0 98 -41 137t-155 39q-112 0 -179 -1t-90 -3v-287q0 -10 9 -10h221q26 0 26 -29v-71q0 -27 -32 -27h-326q-45 0 -45 43v446q0 26 47 37q73 17 152 26t167 9q241 0 324 -90q72 -78 72 -242v-1027zM570 697q0 -18 -7 -33.5 t-18.5 -27t-27 -18.5t-33.5 -7t-33.5 7t-27 18.5t-18.5 27t-7 33.5q0 32 27 58q28 26 59 26q37 0 61.5 -23.5t24.5 -60.5z" />
<glyph unicode="&#xfb44;" horiz-adv-x="1013" d="M894 346q0 -177 -82 -260q-90 -94 -299 -94q-191 0 -360 33q-31 6 -31 30v60q0 28 35 26q105 -7 196 -10.5t170 -3.5q127 0 176 43q39 34 39 113v393q0 98 -40 137q-41 39 -156 39q-111 0 -178 -1t-91 -3v-291q0 -6 11 -6h211q34 0 34 -29v-69q0 -29 -32 -29h-324 q-45 0 -45 51v443q0 21 47 32q145 35 318 35q242 0 325 -90q76 -82 76 -242v-307zM650 287q0 -18 -7 -33.5t-18.5 -27t-27 -18.5t-33.5 -7t-33.5 7t-27 18.5t-18.5 27t-7 33.5q0 32 27 58q28 26 59 26q37 0 61.5 -23.5t24.5 -60.5z" />
<glyph unicode="&#xfb46;" horiz-adv-x="940" d="M763 672q-28 -85 -68 -140q-17 -23 -51 -57t-86 -82l229 -256q19 -19 19 -57v-29q0 -51 -43 -51h-645q-25 0 -25 27v77q0 29 25 29h497q18 0 2 14l-153 160q-179 184 -264 348l-146 275q-24 47 17 47h90q39 0 57 -33l127 -237q106 -198 154 -246q45 22 112 233l80 248 q14 35 49 35h90q32 0 19 -43zM270 487q0 -18 -7 -33.5t-18.5 -27t-27 -18.5t-33.5 -7t-33.5 7t-27 18.5t-18.5 27t-7 33.5q0 32 27 58q28 26 59 26q37 0 61.5 -23.5t24.5 -60.5z" />
<glyph unicode="&#xfb47;" horiz-adv-x="1052" d="M684 51q-26 -51 -53 -51h-96q-33 0 -15 39l264 557q25 50 25 102q0 64 -42 104t-118 40h-524q-29 0 -29 30v76q0 29 29 29h543q120 0 202 -76t82 -201q0 -80 -43 -172zM289 -374q0 -35 -31 -35h-88q-29 0 -29 35v734q0 97 37 193q12 33 33 33h51q27 0 27 -29v-931z M631 447q0 -18 -7 -33.5t-18.5 -27t-27 -18.5t-33.5 -7t-33.5 7t-27 18.5t-18.5 27t-7 33.5q0 32 27 58q28 26 59 26q37 0 61.5 -23.5t24.5 -60.5z" />
<glyph unicode="&#xfb48;" horiz-adv-x="901" d="M767 31q0 -31 -31 -31h-90q-31 0 -31 29v667q0 84 -49 117q-56 39 -209 39q-69 0 -130 -4t-115 -12q-45 -8 -45 22v57q0 28 30 39q93 31 293 31q377 0 377 -291v-663zM430 427q0 -18 -7 -33.5t-18.5 -27t-27 -18.5t-33.5 -7t-33.5 7t-27 18.5t-18.5 27t-7 33.5 q0 32 27 58q28 26 59 26q37 0 61.5 -23.5t24.5 -60.5z" />
<glyph unicode="&#xfb49;" horiz-adv-x="1245" d="M1011 307q-38 -181 -146 -254q-92 -63 -266 -63h-65q-155 0 -234 63q-86 71 -113 230l-108 659q-6 35 22 35h99q33 0 37 -31l81 -553l37 13q101 32 121 167l55 369q8 35 37 35h97q28 0 22 -33l-65 -373q-28 -163 -170 -219l-119 -47l6 -41q25 -145 184 -145h92 q200 0 234 172l135 663q5 23 29 23h104q31 0 23 -35zM830 507q0 -18 -7 -33.5t-18.5 -27t-27 -18.5t-33.5 -7t-33.5 7t-27 18.5t-18.5 27t-7 33.5q0 32 27 58q28 26 59 26q37 0 61.5 -23.5t24.5 -60.5z" />
<glyph unicode="&#xfb4a;" horiz-adv-x="1128" d="M406 27q0 -27 -33 -27h-293q-29 0 -29 29v75q0 31 29 31h176v701h-88q-35 0 -35 24v70q0 28 39 33q166 18 406 18q238 0 323 -53q94 -61 94 -244v-649q0 -35 -30 -35h-91q-30 0 -30 35v661q0 90 -48 119q-49 29 -206 29q-61 0 -106.5 -0.5t-77.5 -1.5v-815zM705 431 q0 -18 -7 -33.5t-18.5 -27t-27 -18.5t-33.5 -7t-33.5 7t-27 18.5t-18.5 27t-7 33.5q0 32 27 58q28 26 59 26q37 0 61.5 -23.5t24.5 -60.5z" />
<glyph unicode="&#xfb4b;" horiz-adv-x="417" d="M285 35q0 -35 -31 -35h-92q-29 0 -29 35v911q0 31 31 31h92q29 0 29 -33v-909zM296 1170q0 -18 -7 -33.5t-18.5 -27t-27 -18.5t-33.5 -7q-17 0 -32.5 7t-27.5 18.5t-19 27t-7 33.5q0 16 7 31.5t19 27t27.5 18.5t32.5 7q39 0 62.5 -23.5t23.5 -60.5z" />
<glyph horiz-adv-x="0" />
<glyph horiz-adv-x="700" d="M609 712q0 -110 -77 -187q-76 -76 -187 -76q-108 0 -185 77t-77 186q0 110 77 187t185 77q110 0 187 -77t77 -187zM536 712q0 81 -56 137q-55 55 -135 55t-135 -55t-55 -137q0 -79 55 -135q56 -56 135 -56t135 56q56 58 56 135z" />
<glyph horiz-adv-x="700" d="M609 712q0 -110 -77 -187q-76 -76 -187 -76q-108 0 -185 77t-77 186q0 110 77 187t185 77q110 0 187 -77t77 -187zM536 712q0 81 -56 137q-55 55 -135 55t-135 -55t-55 -137q0 -79 55 -135q56 -56 135 -56t135 56q56 58 56 135z" />
<glyph horiz-adv-x="700" d="M609 712q0 -110 -77 -187q-76 -76 -187 -76q-108 0 -185 77t-77 186q0 110 77 187t185 77q110 0 187 -77t77 -187zM536 712q0 81 -56 137q-55 55 -135 55t-135 -55t-55 -137q0 -79 55 -135q56 -56 135 -56t135 56q56 58 56 135z" />
<glyph horiz-adv-x="700" d="M609 712q0 -110 -77 -187q-76 -76 -187 -76q-108 0 -185 77t-77 186q0 110 77 187t185 77q110 0 187 -77t77 -187zM536 712q0 81 -56 137q-55 55 -135 55t-135 -55t-55 -137q0 -79 55 -135q56 -56 135 -56t135 56q56 58 56 135z" />
<glyph d="M657 770q0 -119 -83 -202t-203 -83q-118 0 -200 84q-83 85 -83 201q0 118 83 203q82 84 200 84q120 0 203 -84q83 -85 83 -203zM578 770q0 88 -60 148q-58 61 -147 61q-86 0 -146 -61q-59 -61 -59 -148q0 -84 59 -146q60 -61 146 -61q89 0 147 61q60 61 60 146z" />
<glyph d="M657 770q0 -119 -83 -202t-203 -83q-118 0 -200 84q-83 85 -83 201q0 118 83 203q82 84 200 84q120 0 203 -84q83 -85 83 -203zM578 770q0 88 -60 148q-58 61 -147 61q-86 0 -146 -61q-59 -61 -59 -148q0 -84 59 -146q60 -61 146 -61q89 0 147 61q60 61 60 146z" />
<glyph d="M657 770q0 -119 -83 -202t-203 -83q-118 0 -200 84q-83 85 -83 201q0 118 83 203q82 84 200 84q120 0 203 -84q83 -85 83 -203zM578 770q0 88 -60 148q-58 61 -147 61q-86 0 -146 -61q-59 -61 -59 -148q0 -84 59 -146q60 -61 146 -61q89 0 147 61q60 61 60 146z" />
<glyph horiz-adv-x="0" d="M934 -299q0 -39 -26 -66.5t-68 -27.5q-39 0 -65.5 27.5t-26.5 66.5t26.5 64.5t65.5 25.5t66.5 -25.5t27.5 -64.5zM934 -600q0 -42 -26 -68t-68 -26q-39 0 -65.5 26t-26.5 68q0 18 7.5 35t20 29.5t29.5 20t35 7.5q42 0 68 -26.5t26 -65.5zM639 -672h-94v445h94v-445z M418 -346h-170l-6 -100q0 -23 29 -67q30 -44 30 -65q0 -40 -26.5 -67t-65.5 -27q-20 0 -36.5 7.5t-29 20.5t-19.5 30t-7 36q0 25 30 67q31 41 31 67l-8 98h-170v119h418v-119z" />
<glyph d="M657 770q0 -119 -83 -202t-203 -83q-118 0 -200 84q-83 85 -83 201q0 118 83 203q82 84 200 84q120 0 203 -84q83 -85 83 -203zM578 770q0 88 -60 148q-58 61 -147 61q-86 0 -146 -61q-59 -61 -59 -148q0 -84 59 -146q60 -61 146 -61q89 0 147 61q60 61 60 146z" />
<glyph d="M657 770q0 -119 -83 -202t-203 -83q-118 0 -200 84q-83 85 -83 201q0 118 83 203q82 84 200 84q120 0 203 -84q83 -85 83 -203zM578 770q0 88 -60 148q-58 61 -147 61q-86 0 -146 -61q-59 -61 -59 -148q0 -84 59 -146q60 -61 146 -61q89 0 147 61q60 61 60 146z" />
<glyph d="M657 770q0 -119 -83 -202t-203 -83q-118 0 -200 84q-83 85 -83 201q0 118 83 203q82 84 200 84q120 0 203 -84q83 -85 83 -203zM578 770q0 88 -60 148q-58 61 -147 61q-86 0 -146 -61q-59 -61 -59 -148q0 -84 59 -146q60 -61 146 -61q89 0 147 61q60 61 60 146z" />
<glyph d="M657 770q0 -119 -83 -202t-203 -83q-118 0 -200 84q-83 85 -83 201q0 118 83 203q82 84 200 84q120 0 203 -84q83 -85 83 -203zM578 770q0 88 -60 148q-58 61 -147 61q-86 0 -146 -61q-59 -61 -59 -148q0 -84 59 -146q60 -61 146 -61q89 0 147 61q60 61 60 146z" />
</font>
</defs>
</svg>
